<svg width="96" height="96" viewBox="0 0 96 96" fill="none" xmlns="http://www.w3.org/2000/svg">
<rect width="96" height="96" fill="#2E3D27"/>
<path fill-rule="evenodd" clip-rule="evenodd" d="M49.3333 34.6667V29.3333C49.3333 28.98 49.1933 28.64 48.9427 28.3907C48.6933 28.14 48.3533 28 48 28H21.3333C20.98 28 20.64 28.14 20.3907 28.3907C20.14 28.64 20 28.98 20 29.3333V34.6667C20 35.02 20.14 35.36 20.3907 35.6093C20.64 35.86 20.98 36 21.3333 36H48C48.3533 36 48.6933 35.86 48.9427 35.6093C49.1933 35.36 49.3333 35.02 49.3333 34.6667ZM49.3333 40.8305V39.9998C49.3333 39.6465 49.1933 39.3065 48.9427 39.0572C48.6933 38.8065 48.3533 38.6665 48 38.6665H21.3333C20.98 38.6665 20.64 38.8065 20.3907 39.0572C20.14 39.3065 20 39.6465 20 39.9998V45.3332C20 45.6865 20.14 46.0265 20.3907 46.2758C20.64 46.5265 20.98 46.6665 21.3333 46.6665H45.3306C46.256 44.4505 47.6267 42.4678 49.3333 40.8305ZM21.3333 49.3335H44.4653C44.1613 50.6175 44 51.9575 44 53.3335C44 54.7095 44.1613 56.0495 44.4653 57.3335H21.3333C20.98 57.3335 20.64 57.1935 20.3907 56.9428C20.14 56.6935 20 56.3535 20 56.0002V50.6668C20 50.3135 20.14 49.9735 20.3907 49.7242C20.64 49.4735 20.98 49.3335 21.3333 49.3335ZM21.3333 60H45.3306C46.256 62.216 47.628 64.1987 49.3333 65.836V66.6667C49.3333 67.02 49.1933 67.36 48.9427 67.6093C48.6933 67.86 48.3533 68 48 68H21.3333C20.98 68 20.64 67.86 20.3907 67.6093C20.14 67.36 20 67.02 20 66.6667V61.3333C20 60.98 20.14 60.64 20.3907 60.3907C20.64 60.14 20.98 60 21.3333 60Z" fill="url(#paint0_linear_2943_14929)"/>
<path fill-rule="evenodd" clip-rule="evenodd" d="M61.3334 38.6667C69.428 38.6667 76 45.2387 76 53.3334C76 61.428 69.428 68 61.3334 68C53.2387 68 46.6667 61.428 46.6667 53.3334C46.6667 45.2387 53.2387 38.6667 61.3334 38.6667ZM60 44C57.0547 44 54.6667 46.388 54.6667 49.3334C54.6667 52.2787 57.0547 54.6667 60 54.6667H62.6667C64.14 54.6667 65.3334 55.86 65.3334 57.3334C65.3334 58.8067 64.14 60 62.6667 60H60C58.5267 60 57.3334 58.8067 57.3334 57.3334C57.3334 56.5974 56.736 56 56 56C55.264 56 54.6667 56.5974 54.6667 57.3334C54.6667 60.2787 57.0547 62.6667 60 62.6667V64C60 64.736 60.5974 65.3334 61.3334 65.3334C62.0694 65.3334 62.6667 64.736 62.6667 64V62.6667C65.612 62.6667 68 60.2787 68 57.3334C68 54.388 65.612 52 62.6667 52H60C58.5267 52 57.3334 50.8067 57.3334 49.3334C57.3334 47.86 58.5267 46.6667 60 46.6667H62.6667C64.14 46.6667 65.3334 47.86 65.3334 49.3334C65.3334 50.0694 65.9307 50.6667 66.6667 50.6667C67.4027 50.6667 68 50.0694 68 49.3334C68 46.388 65.612 44 62.6667 44V42.6667C62.6667 41.9307 62.0694 41.3334 61.3334 41.3334C60.5974 41.3334 60 41.9307 60 42.6667V44Z" fill="white"/>
<defs>
<linearGradient id="paint0_linear_2943_14929" x1="34.6667" y1="28" x2="34.6667" y2="68" gradientUnits="userSpaceOnUse">
<stop stop-color="#689A4B"/>
<stop offset="1" stop-color="#689A4B" stop-opacity="0"/>
</linearGradient>
</defs>
</svg>
