<svg class="load-present" viewBox="0 0 600 150"><path class="stroke-line" fill="#fff" d="M59.8,97.1c-3.8,3.5-10.2,5.2-15.4,6.4c-14.8,2.8-31.3-3.4-37.1-17.6C2.4,73.5,5.2,57,14.7,48.1c10.8-10.5,29.7-10.4,42.2-3.7l-4,11.5c-10.9-5.8-29-5.7-33.7,7.8c-3.6,10.5-0.6,22.9,11,26.6c5,1.6,12.2,2,17-0.3v-7.6H36.4v-12h23.4V97.1z M70,72c-0.1-22.5,23.5-38.9,44.4-29.7c26.2,11.8,26.5,47.7,0,59.3C93.4,110.5,69.8,94.9,70,72z M82.8,72c-0.2,14,14.1,24.2,27.1,18.6c15.4-6.9,15.2-30.5-0.2-37.3C96.4,47.7,82.5,57.8,82.8,72z M146.5,40.5h12.4v51h29.5v12h-41.9V40.5zM201.2,103.4v-63h18.8c6.3,0,11.7,0.9,16.1,2.8c12.3,4.8,18.6,17.3,18.5,29.8c0.2,12.8-7.6,24-19.4,28.3c-3.8,1.4-7.8,2.1-12.1,2.1H201.2z M213.6,91.5c4.7-0.1,11.6,0.4,15.9-1.2c8.1-2.4,12.6-9.6,12.4-18c0.3-9.2-4.6-16.8-13-19c-3.9-1.3-11.3-0.7-15.3-0.8V91.5zM266.9,40.5h42.8v12h-30.5v13.4h27v12h-27v13.6H311v12h-44V40.5z M379.9,106L336,66.2l0.3,37.3h-12.5V38h0.5l43.8,40.5l-0.3-38h12.5V106H379.9z M457.8,55.7c-5.9-3.2-14.6-6.7-20.6-2.9c-1.5,1.1-2.3,2.7-2.3,4.9c0.1,3.5,3.2,5.5,6.3,7.1c7.1,3.4,16.3,5.3,19.4,13.6c5.1,14.2-5,26.1-20.2,25.7c-7.6,0-15.2-2.3-21.5-6.8l5.5-9.7c4.2,3,9.8,5.4,14.9,5.5c2.8,0,6.2-0.7,8.2-2.8c1.8-1.8,2.1-5.6,0.3-7.7c-3.4-4.1-9.1-5.2-13.9-7.6c-4.1-2-8-4.6-10.1-8.8c-2.5-4.7-2.1-12.7,0.8-17.1c7.9-12.7,27.6-10.3,37.9-2.9L457.8,55.7z M485.1,80.2c0,6.5,6.5,12,13,11.9c4.8,0.1,9.1-2.3,11.6-6.2c1.2-1.8,1.7-3.7,1.7-5.7V40.5h12.2v39.9c0,4.6-1.1,8.7-3.4,12.3c-9.4,15.2-34.6,15.2-44,0c-2.3-3.6-3.4-7.7-3.4-12.3V40.5h12.4V80.2z M594.7,106l-43.9-39.8l0.3,37.3h-12.5V38h0.5l43.8,40.5l-0.3-38H595V106H594.7z"></path></svg>