<svg  xmlns="http://www.w3.org/2000/svg"  x="0px" y="0px" width="300px" height="300px" viewBox="0 0 300 300">
<path fill="#005656" d="M46.7,111.6L46.7,111.6l107.9-1.9L53.8,120.5C48.8,121.1,44.9,116.2,46.7,111.6"/>
<path fill="#005656" d="M141.2,125.2l-87.7,53.4c-4.3,2.6-10,0.3-11.1-4.7l0-0.1L141.2,125.2z"/>
<path fill="#005656" d="M253.7,187.4L194,170.8l53,6C252.1,177.4,255.4,182.5,253.7,187.4L253.7,187.4z"/>
<path fill="#005656" d="M138.3,135.1l-72.5,70c-3.7,3.6-9.8,2.7-12.3-1.8l-0.1-0.1L138.3,135.1z"/>
<path fill="#005656" d="M184.5,175.1l51.4,27.3c4.6,2.5,6.1,8.5,3,12.7l-0.1,0.1L184.5,175.1z"/>
<path fill="#005656" d="M138.3,145.4L85.2,227c-2.8,4.4-9,5.1-12.7,1.5l-0.1-0.1L138.3,145.4z"/>
<path fill="#005656" d="M164,175.1l30.5,65.2c2.3,4.9,0,10.7-5,12.7l-0.1,0L164,175.1z"/>
<path fill="#005656" d="M40,142.4l0-0.1l106.8-25.9l-97.4,33.1C44.6,151.1,39.7,147.4,40,142.4"/>
<path fill="#005656" d="M260,156.7L260,156.7l-58.3,7.3l49-14.6C255.5,148,260.3,151.7,260,156.7"/>
<path fill="#005656" d="M141.2,155.3L110,242.4c-1.8,5-7.6,7.3-12.2,4.8l-0.1,0L141.2,155.3z"/>
<path fill="#005656" d="M146.8,164l-8.7,86c-0.5,5.3-5.5,9.1-10.7,8l-0.1,0L146.8,164z"/>
<path fill="#005656" d="M207.3,125.1l-12.7-65.7c-0.9-4.7,4.1-8.5,8.3-6.2l0.1,0.1L207.3,125.1z"/>
<path fill="#005656" d="M210.2,135l7.7-59.7c0.6-4.8,6.5-6.9,9.9-3.5l0.1,0.1L210.2,135z"/>
<path fill="#005656" d="M142.7,40l51.2,69.7l-54.9-59.6C135.6,46.4,137.8,40.6,142.7,40"/>
<path fill="#005656" d="M216.9,237.7l-42.7-61.1l43.8,47.6C221.7,228.1,221.2,234.3,216.9,237.7L216.9,237.7z"/>
<path fill="#005656" d="M210.2,145.4l25.5-48.5c2.2-4.3,8.4-4.4,10.7-0.2l0.1,0.1L210.2,145.4z"/>
<path fill="#005656" d="M207.3,155.3l39.6-33.2c3.7-3.1,9.5-1.3,10.6,3.5l0,0.1L207.3,155.3z"/>
<path fill="#005656" d="M173.8,42.3l27.8,74.1l-34.2-65.8c-2.2-4.3,1.5-9.4,6.3-8.3L173.8,42.3z"/>
<path fill="#005656" d="M158.7,260l-4.1-89.2l12.4,78C167.9,254.3,164.1,259.3,158.7,260"/>
<path fill="#005656" d="M185.5,105.7l-74.8-48.5c-4.1-2.7-3.5-8.9,1.1-10.6l0.1,0L185.5,105.7z"/>
<path fill="#005656" d="M164,105.4L66.3,94.1c-4.9-0.6-7.4-6.3-4.5-10.2l0.1-0.1L164,105.4z"/>
<path fill="#005656" d="M84.2,61.5l90.1,42.3L85.8,72.4C81.2,70.7,80.2,64.6,84.2,61.5L84.2,61.5z"/>
</svg>
