<svg width="85" height="132" viewBox="0 0 85 132" fill="none" xmlns="http://www.w3.org/2000/svg">
<g id="Group">
<g id="Group_2">
<path id="Vector" d="M62.183 74.7844C64.7408 76.273 67.0955 77.6398 69.4367 79.0202C71.3042 80.1163 71.3177 82.2139 69.4637 83.2965C67.109 84.6769 64.7408 86.0302 62.1695 87.5188C64.7408 89.0074 67.0684 90.4148 69.4637 91.714C70.384 92.2147 70.7493 92.8102 70.7358 93.8657C70.7223 94.8942 70.4246 95.4761 69.4908 96.0174C60.8298 100.984 52.1958 106.018 43.5618 111.052C42.7634 111.513 42.1544 111.621 41.2613 111.093C32.6002 106.032 23.8851 101.025 15.197 96.0039C13.7084 95.1378 13.6542 92.7019 15.1293 91.8223C17.5246 90.4013 19.9335 89.0209 22.5183 87.5188C20.3665 86.2738 18.4178 85.11 16.442 83.9867C14.0873 82.6605 14.0873 82.674 14.2091 79.6291C16.8751 78.0729 19.6087 76.4895 22.5453 74.7709C19.9199 73.2552 17.5517 71.8884 15.1834 70.5215C13.7084 69.669 13.6813 67.2195 15.1699 66.3399C17.5111 64.946 19.8793 63.5927 22.5183 62.0635C21.0702 61.2109 19.8387 60.4802 18.5937 59.7494C17.5923 59.1675 16.6044 58.5044 15.5488 58.0172C14.3985 57.5029 14.1414 56.7045 14.1143 55.5136C14.0873 54.3227 14.6421 53.8491 15.5624 53.3483C17.8224 52.1168 20.0282 50.7771 22.5183 49.3291C20.1229 47.9217 17.9577 46.5548 15.6842 45.3775C14.5339 44.782 14.1279 44.1054 14.1008 42.8062C14.0738 41.5071 14.7369 41.0605 15.6706 40.5463C17.89 39.3148 20.0688 38.0291 22.5453 36.5947C20.1906 35.2278 18.0389 33.9828 15.8736 32.7378C14.9263 32.1965 13.9926 31.7905 14.0873 30.3019C14.1685 29.0975 14.4797 28.4343 15.5624 27.866C17.8359 26.6751 20.0282 25.3083 22.5183 23.8602C20.0011 22.3852 17.7141 21.0454 15.4135 19.7192C13.5595 18.6501 13.5595 16.3089 15.4406 15.2263C23.9392 10.3003 32.4784 5.40143 40.9635 0.448401C42.0056 -0.160577 42.7228 -0.147044 43.8054 0.475467C52.2905 5.45556 60.8162 10.3545 69.3419 15.2804C71.3313 16.4307 71.3313 18.5283 69.3419 19.6786C67.0278 21.0319 64.7272 22.3716 62.183 23.8602C64.7949 25.3759 67.1902 26.7698 69.5855 28.1772C71.2095 29.1381 71.2365 31.3439 69.6126 32.2912C67.2173 33.6986 64.7949 35.079 62.1695 36.5811C64.6731 38.0427 66.9601 39.423 69.2878 40.7086C70.208 41.2229 70.7223 41.7236 70.7358 42.901C70.7493 44.146 70.2216 44.6873 69.2472 45.2151C66.9466 46.4736 64.7002 47.8405 62.1424 49.3291C64.6325 50.75 66.8925 52.0221 69.1254 53.3483C69.9103 53.8085 70.7899 54.1332 70.7358 55.4595C70.6817 56.6639 70.3704 57.3947 69.2878 57.963C66.9737 59.1945 64.7272 60.5613 62.156 62.05C64.7137 63.5386 66.9872 64.9189 69.3284 66.1775C70.3569 66.7323 70.7899 67.3684 70.7223 68.5593C70.6817 69.466 70.4652 70.0208 69.6261 70.4809C67.2037 71.8207 64.822 73.2552 62.183 74.7844ZM67.9345 93.8928C65.4309 92.4448 63.0897 91.1456 60.8298 89.7247C59.8689 89.1292 59.1382 89.2104 58.2044 89.7653C53.4138 92.6072 48.5555 95.3543 43.7648 98.1962C42.7228 98.8187 41.9514 98.7781 40.8959 98.1556C36.0646 95.2867 31.1657 92.5124 26.2804 89.7247C25.8338 89.4675 25.1166 89.1021 24.7918 89.2781C22.1393 90.7126 19.5546 92.2553 16.8209 93.8522C17.281 94.1634 17.5246 94.3529 17.7818 94.5018C25.6308 99.0488 33.4799 103.582 41.3019 108.156C42.168 108.657 42.7905 108.454 43.5348 108.021C48.3119 105.247 53.1025 102.5 57.8796 99.739C61.1681 97.8308 64.443 95.9227 67.9345 93.8928ZM16.7803 17.4863C19.2839 18.9478 21.598 20.2605 23.8715 21.6544C24.7512 22.1957 25.4278 22.2363 26.3616 21.6815C31.2469 18.7854 36.2 16.0112 41.0853 13.1152C42.0597 12.5468 42.7363 12.5874 43.6701 13.1287C48.5149 15.9977 53.4002 18.7854 58.245 21.6544C59.1382 22.1822 59.8283 22.2904 60.735 21.695C62.0477 20.8289 63.4551 20.1252 64.8084 19.3267C65.7828 18.7584 66.7301 18.1629 67.7721 17.5269C67.4609 17.2833 67.3661 17.1615 67.2308 17.0938C59.2464 12.4791 51.262 7.83734 43.2371 3.2903C42.7363 3.00611 41.762 3.10084 41.2071 3.39856C37.7021 5.32023 34.2377 7.35016 30.7733 9.36655C26.2127 12.0055 21.6251 14.685 16.7803 17.4863ZM56.9323 87.5188C54.1987 85.9355 51.6816 84.4333 49.1103 83.0259C48.772 82.8364 48.1359 82.9447 47.7435 83.1477C46.3496 83.8785 44.9693 84.6363 43.6701 85.5159C42.7228 86.152 41.965 86.0979 41.0447 85.5024C39.732 84.6498 38.3517 83.8785 36.9713 83.1477C36.5924 82.9447 35.9564 82.85 35.6181 83.0394C33.0468 84.4468 30.5297 85.9219 27.9314 87.4105C28.1344 87.6271 28.2021 87.7624 28.3238 87.8301C32.7897 90.4284 37.242 93.0402 41.7349 95.5844C42.0868 95.7874 42.804 95.6521 43.2235 95.422C45.0911 94.4206 46.918 93.3244 48.7585 92.2688C51.4244 90.7261 54.0769 89.1833 56.9323 87.5188ZM27.769 23.8602C30.5703 25.4842 33.128 26.9999 35.7399 28.4343C36.024 28.5967 36.6195 28.4073 36.9849 28.2178C38.5006 27.3923 39.9486 26.445 41.4913 25.6872C41.965 25.4571 42.7499 25.4707 43.2371 25.7142C44.7392 26.4586 46.1331 27.3923 47.6082 28.1772C48.0141 28.3937 48.6637 28.5832 48.9885 28.4073C51.6004 26.9863 54.1716 25.4571 56.9458 23.8602C52.1011 21.0725 47.5134 18.393 42.8852 15.7947C42.5198 15.5917 41.8026 15.7811 41.3695 15.9977C39.935 16.742 38.5412 17.5945 37.1473 18.4065C34.0888 20.1928 31.044 21.9656 27.769 23.8602ZM56.9323 74.7844C55.5113 73.9724 54.3205 73.2822 53.1431 72.6056C51.641 71.753 50.1388 70.2238 48.6502 70.2373C47.0939 70.2509 45.497 71.6583 44.0084 72.5921C42.8446 73.3228 41.8838 73.4311 40.7199 72.5785C39.5426 71.7124 38.2028 71.0629 36.9037 70.3591C36.5924 70.1832 36.0782 70.0208 35.821 70.1697C33.1821 71.6312 30.5838 73.1469 27.7555 74.7844C30.5432 76.4083 33.0603 77.8969 35.6316 79.3179C35.9699 79.5074 36.6195 79.3585 37.0119 79.1555C38.3923 78.4247 39.7591 77.6128 41.0853 76.7872C41.9244 76.2595 42.6416 76.1106 43.5618 76.7466C44.8475 77.6398 46.2549 78.3706 47.6352 79.1284C48.0006 79.3314 48.5961 79.5615 48.8938 79.3991C51.5327 77.9375 54.1445 76.4083 56.9323 74.7844ZM27.7825 62.05C29.5824 63.1055 31.2063 63.8092 32.5055 64.8783C35.0767 67.003 37.445 66.8677 39.8809 64.7701C41.4372 63.4439 42.9935 63.2409 44.6851 64.6483C45.5647 65.3791 46.6609 65.8798 47.7029 66.4075C48.0683 66.597 48.6637 66.7594 48.9614 66.597C51.5598 65.1625 54.1175 63.6604 56.9052 62.0364C54.1039 60.399 51.5868 58.9103 49.0291 57.5029C48.7043 57.327 48.0547 57.5029 47.6488 57.7195C46.1331 58.5314 44.6715 59.4652 43.1423 60.2501C42.7228 60.4666 41.992 60.4666 41.5725 60.2501C40.0298 59.4787 38.5817 58.545 37.0525 57.733C36.6466 57.5165 35.997 57.3135 35.6722 57.5029C33.128 58.9103 30.6109 60.4125 27.7825 62.05ZM27.7825 36.5811C29.5012 37.5826 31.1387 38.3133 32.492 39.396C35.0226 41.4124 37.3773 41.5612 39.8132 39.3283C40.2463 38.9358 40.8282 38.6111 41.4101 38.4622C42.0191 38.3133 42.804 38.2051 43.3182 38.4622C44.8204 39.1794 46.2143 40.1267 47.6758 40.9252C48.0412 41.1282 48.6231 41.3447 48.8938 41.1958C51.5327 39.7478 54.1175 38.2051 56.9188 36.5811C54.1581 34.9843 51.641 33.4956 49.0697 32.0882C48.7314 31.8988 48.0953 32.0206 47.7029 32.2235C46.2278 33.0085 44.8475 33.9693 43.3453 34.7001C42.8175 34.9572 41.965 34.9707 41.4507 34.7271C39.908 33.9828 38.46 33.0355 36.9443 32.21C36.5924 32.0206 35.997 31.8446 35.7128 32.007C33.128 33.455 30.5703 34.9707 27.7825 36.5811ZM42.3709 50.6282C44.0761 51.6161 45.7677 52.6176 47.4999 53.5649C47.9059 53.7949 48.5555 54.0791 48.8532 53.9167C51.4921 52.4958 54.0769 50.9666 56.6887 49.4644C56.4992 49.1937 56.4722 49.072 56.391 49.0314C54.8212 48.0976 53.1431 47.3262 51.6951 46.2301C49.5704 44.6332 47.6082 44.3084 45.5241 46.1895C43.3453 48.1517 41.1665 48.0029 39.0283 46.1083C37.1879 44.4843 35.4015 44.4843 33.3851 45.9865C31.7206 47.2315 29.7989 48.1517 27.7961 49.3291C30.5703 50.9395 33.0468 52.4146 35.5639 53.8085C35.9022 53.9979 36.5383 53.8897 36.9037 53.7002C38.7441 52.7394 40.5305 51.6838 42.3709 50.6282ZM51.1538 68.4375C53.9415 70.0479 56.4722 71.523 59.0164 72.9575C59.2464 73.0928 59.6659 73.1604 59.8689 73.0522C62.4943 71.5906 65.1061 70.075 67.9616 68.4375C65.1332 66.8 62.6026 65.3249 60.0449 63.904C59.7336 63.728 59.1517 63.8092 58.8134 63.9852C56.3639 65.379 53.928 66.8135 51.1538 68.4375ZM51.1673 55.6895C53.9686 57.3135 56.4722 58.8021 59.0164 60.2366C59.2735 60.3854 59.7471 60.4125 60.0043 60.2772C62.589 58.8291 65.1332 57.327 67.948 55.7031C65.1467 54.0791 62.6296 52.5905 60.0855 51.1696C59.8013 51.0072 59.26 51.0478 58.9622 51.2101C56.4451 52.6176 53.9686 54.0656 51.1673 55.6895ZM51.1673 81.1584C53.9686 82.7823 56.5669 84.3115 59.1923 85.8001C59.3682 85.9084 59.7201 85.8949 59.9095 85.7866C62.5349 84.298 65.1467 82.7823 67.9616 81.1584C65.2009 79.5615 62.6702 78.0729 60.1125 76.6519C59.8283 76.4895 59.287 76.476 59.0164 76.6248C56.4587 78.0593 53.928 79.548 51.1673 81.1584ZM16.7533 30.2207C19.5275 31.8311 22.0987 33.3332 24.6835 34.8083C24.9 34.9301 25.3196 34.9572 25.5225 34.8354C28.1479 33.3603 30.7462 31.8446 33.534 30.2207C30.8139 28.6373 28.3238 27.1758 25.8203 25.7548C25.5225 25.5924 24.9948 25.5113 24.7241 25.6601C22.1258 27.1081 19.5546 28.6103 16.7533 30.2207ZM16.7668 55.6895C18.6208 56.7722 20.3395 57.4759 21.7063 58.6126C24.2234 60.7102 26.4292 60.3178 28.8381 58.4773C30.2049 57.4353 31.8153 56.691 33.534 55.676C30.7598 54.0656 28.2697 52.604 25.7661 51.1831C25.4955 51.0342 25.0218 50.9666 24.7782 51.1019C22.1664 52.5499 19.6087 54.052 16.7668 55.6895ZM33.5475 42.9686C30.7462 41.3447 28.1344 39.829 25.509 38.3539C25.2925 38.2321 24.8865 38.2727 24.6564 38.3945C22.0852 39.8696 19.5275 41.3718 16.7668 42.9822C19.5275 44.579 22.0581 46.0677 24.6023 47.4886C24.8865 47.651 25.4007 47.651 25.6849 47.4886C28.2562 46.0541 30.7733 44.5655 33.5475 42.9686ZM51.1673 30.2342C53.9686 31.8582 56.5804 33.3874 59.2058 34.876C59.3953 34.9843 59.7336 34.9707 59.9231 34.876C62.5484 33.3738 65.1603 31.8582 67.9616 30.2342C65.2009 28.6373 62.6702 27.1487 60.1125 25.7142C59.8283 25.5519 59.3005 25.5519 59.0028 25.7142C56.4451 27.1352 53.9145 28.6238 51.1673 30.2342ZM67.9751 42.9551C65.1467 41.3312 62.5349 39.8155 59.9095 38.3269C59.7201 38.2186 59.3682 38.2186 59.1923 38.3269C56.5804 39.8155 53.9821 41.3312 51.1673 42.9686C53.9551 44.5655 56.4857 46.0406 59.0299 47.4615C59.3141 47.6239 59.8283 47.6239 60.1125 47.4615C62.6702 46.0541 65.1873 44.5655 67.9751 42.9551ZM16.7668 68.4375C19.5546 70.0479 22.0717 71.523 24.6158 72.9575C24.8459 73.0928 25.2654 73.174 25.4684 73.0522C28.0938 71.5771 30.7056 70.0614 33.5475 68.4239C30.7192 66.8 28.2021 65.3249 25.6443 63.9175C25.3331 63.7416 24.7512 63.8092 24.4129 63.9987C21.9634 65.3791 19.5275 66.8271 16.7668 68.4375ZM16.7668 81.1448C19.5546 82.7688 22.1258 84.2709 24.7106 85.7325C24.9271 85.8543 25.3466 85.8678 25.5496 85.746C28.1615 84.2709 30.7598 82.7552 33.5475 81.1448C30.8004 79.5615 28.3238 78.0999 25.8203 76.6925C25.5225 76.5301 25.0083 76.4489 24.7376 76.5843C22.1258 78.0323 19.5681 79.5344 16.7668 81.1448ZM39.0283 30.2207C42.0191 32.5889 42.6687 32.5754 45.6324 30.2342C42.8717 27.9201 42.0326 27.9066 39.0283 30.2207ZM39.0419 81.1584C41.9379 83.486 43.1694 83.4725 45.5918 81.0907C42.5063 78.8307 41.9379 78.8307 39.0419 81.1584ZM45.5782 42.9416C42.6957 40.641 41.6402 40.6545 39.0689 43.0092C42.2086 45.3098 42.9123 45.3098 45.5782 42.9416ZM45.6053 55.7707C42.9935 53.3889 41.2207 53.416 39.1366 55.7843C42.8717 58.1796 41.762 58.1525 45.6053 55.7707ZM45.5918 68.3698C42.5333 66.0692 41.6943 66.0828 39.1366 68.451C41.8296 70.7516 43.1559 70.7245 45.5918 68.3698Z" fill="white"/>
<path id="Vector_2" d="M0.0126953 99.59C2.48921 98.1691 4.64093 96.8564 6.88739 95.6926C7.26631 95.4896 8.02415 95.7738 8.48426 96.0309C15.1966 99.9284 21.8818 103.866 28.567 107.791C32.8569 110.308 37.1604 112.785 41.4097 115.356C42.2352 115.857 42.7901 115.613 43.4802 115.207C52.0059 110.2 60.5452 105.206 69.0709 100.213C71.5609 98.751 74.0509 97.2759 76.5681 95.855C76.9334 95.652 77.5695 95.5167 77.9078 95.6926C80.1272 96.897 82.2925 98.1826 84.6878 99.5765C83.3074 100.388 82.1165 101.106 80.9121 101.809C68.3942 109.036 55.8763 116.263 43.3855 123.516C42.5059 124.03 41.8969 123.773 41.1661 123.34C30.9353 117.426 20.7044 111.512 10.4736 105.612C7.07685 103.663 3.69363 101.715 0.0126953 99.59Z" fill="white"/>
</g>
<path id="Vector_3" d="M0.0668979 103.447C4.83046 106.194 9.26924 108.738 13.6945 111.296C22.9104 116.628 32.1127 121.974 41.3556 127.251C41.8834 127.549 42.8713 127.576 43.3856 127.278C52.845 121.879 62.2774 116.412 71.7098 110.958C75.9592 108.495 80.2085 106.045 84.7555 103.434C84.7555 104.949 84.8638 106.248 84.7014 107.493C84.6472 107.927 83.93 108.36 83.4293 108.644C76.717 112.541 69.9912 116.398 63.2789 120.282C56.8237 124.004 50.3685 127.725 43.9539 131.501C42.8172 132.177 41.9646 132.164 40.7873 131.474C27.904 123.949 15.0207 116.479 2.08329 109.077C0.554081 108.197 -0.217292 107.29 0.0533651 105.545C0.148095 104.963 0.0668979 104.354 0.0668979 103.447Z" fill="white"/>
</g>
</svg>
