<svg width="178" height="48" viewBox="0 0 178 48" fill="none" xmlns="http://www.w3.org/2000/svg">
<g id="Group">
<g id="Group_2">
<path id="Vector" d="M152.456 0.707031C160.44 0.815294 166.814 2.61516 171.659 7.85238C178.277 14.9977 179.305 23.5234 176.396 32.428C173.594 40.9943 167.166 45.812 158.383 47.3683C151.942 48.5051 145.676 47.7337 140.019 44.2558C132.184 39.4381 128.841 32.0762 129.179 23.131C129.626 11.5604 136.041 4.00905 147.3 1.35661C149.303 0.896491 151.4 0.84236 152.456 0.707031ZM140.723 24.3354C140.737 24.6872 140.723 25.4045 140.818 26.1082C141.44 30.8853 143.524 34.7692 148.058 36.7992C152.551 38.8155 157.03 38.4772 161.022 35.4865C165.204 32.3468 166.49 27.8404 166.205 22.8062C165.705 14.3211 158.41 8.90794 150.169 10.8431C144.526 12.1829 140.75 17.4336 140.723 24.3354Z" fill="white"/>
<path id="Vector_2" d="M0.184008 1.99219C3.63489 1.99219 7.07223 1.99219 10.6855 1.99219C10.7126 2.54703 10.7667 3.08835 10.7667 3.62966C10.7667 8.14963 10.8208 12.6696 10.7396 17.1896C10.7126 18.5564 11.1592 18.8947 12.4718 18.8812C17.6008 18.8135 22.7298 18.8541 28.0617 18.8541C28.0617 13.2245 28.0617 7.67598 28.0617 2.00572C31.7968 2.00572 35.3153 2.00572 38.9286 2.00572C38.9286 16.8513 38.9286 31.6021 38.9286 46.4882C35.3424 46.4882 31.8374 46.4882 28.1835 46.4882C28.1835 40.3308 28.1835 34.2545 28.1835 28.0023C27.5745 27.9753 27.0873 27.9211 26.6001 27.9211C21.8772 27.9211 17.1542 27.9753 12.4312 27.8805C11.0238 27.8535 10.7396 28.3542 10.7532 29.6398C10.8208 34.7146 10.7396 39.803 10.8073 44.8778C10.8208 46.1634 10.5366 46.6912 9.12923 46.6371C6.49032 46.5288 3.85141 46.5829 1.21251 46.61C0.387004 46.6235 0.0351562 46.3664 0.0351562 45.4732C0.062222 31.142 0.0622203 16.8242 0.0757532 2.4929C0.0351546 2.4117 0.0892782 2.30344 0.184008 1.99219Z" fill="white"/>
<path id="Vector_3" d="M92.3303 46.5966C88.4193 46.5966 84.7113 46.6237 81.0168 46.5561C80.6514 46.5425 80.1642 45.9471 79.9748 45.5276C79.041 43.3352 78.229 41.1023 77.2547 38.9235C77.0517 38.4634 76.348 37.9492 75.8743 37.9492C70.8401 37.8815 65.8194 37.9221 60.7852 37.8815C59.8379 37.868 59.4454 38.2604 59.1612 39.0859C58.4575 41.1429 57.6456 43.1728 56.9418 45.2298C56.6035 46.2177 56.1163 46.6778 54.9796 46.6508C51.637 46.5696 48.2944 46.6237 44.627 46.6237C45.5743 44.3637 46.4133 42.3338 47.2659 40.3039C52.4354 27.9619 57.632 15.6335 62.761 3.27798C63.2076 2.20889 63.7759 1.82997 64.8992 1.87057C67.2809 1.95176 69.6763 1.97883 72.058 1.85703C73.3843 1.78937 74.0339 2.24948 74.5346 3.46744C78.0396 12.0473 81.5987 20.6136 85.1579 29.1799C87.296 34.3224 89.4342 39.4648 91.5724 44.6209C91.8296 45.2028 92.0325 45.8117 92.3303 46.5966ZM73.9256 29.1393C72.0851 24.0644 70.3258 19.2062 68.4042 13.9148C66.4419 19.2197 64.6285 24.105 62.7745 29.1393C66.5637 29.1393 70.0958 29.1393 73.9256 29.1393Z" fill="white"/>
<path id="Vector_4" d="M98.0674 1.99219C101.64 1.99219 105.172 1.99219 108.84 1.99219C108.84 13.6846 108.84 25.2958 108.84 37.0829C114.632 37.0829 120.288 37.0829 126.067 37.0829C126.067 40.2766 126.067 43.2945 126.067 46.4611C116.797 46.4611 107.486 46.4611 98.0674 46.4611C98.0674 31.7103 98.0674 16.9595 98.0674 1.99219Z" fill="white"/>
</g>
</g>
</svg>
