
<svg version="1.1" id="Layer_1" xmlns="http://www.w3.org/2000/svg" xmlns:xlink="http://www.w3.org/1999/xlink" x="0px" y="0px"
	 viewBox="0 0 224 106" style="enable-background:new 0 0 224 106;" xml:space="preserve">
<style type="text/css">
	.st0{fill:#A01313;}
	.st1{fill:none;stroke:#A01313;stroke-width:3.0426;stroke-linecap:round;stroke-miterlimit:10;}
</style>
<path class="st0" d="M0,80c2-1.1,3.7-2.2,5.5-3.1c0.3-0.2,0.9,0.1,1.3,0.3c5.4,3.1,10.8,6.3,16.1,9.4c3.4,2,6.9,4,10.3,6.1
	c0.7,0.4,1.1,0.2,1.7-0.1c6.8-4,13.7-8,20.6-12c2-1.2,4-2.4,6-3.5c0.3-0.2,0.8-0.3,1.1-0.1c1.8,1,3.5,2,5.4,3.1
	c-1.1,0.7-2.1,1.2-3,1.8c-10.1,5.8-20.1,11.6-30.1,17.4c-0.7,0.4-1.2,0.2-1.8-0.1c-8.2-4.7-16.4-9.5-24.6-14.2C5.7,83.2,3,81.7,0,80
	z"/>
<path class="st0" d="M0.1,83.1c3.8,2.2,7.4,4.2,10.9,6.3c7.4,4.3,14.8,8.6,22.2,12.8c0.4,0.2,1.2,0.3,1.6,0
	c7.6-4.3,15.2-8.7,22.7-13.1c3.4-2,6.8-3.9,10.5-6c0,1.2,0.1,2.3,0,3.3c0,0.3-0.6,0.7-1,0.9c-5.4,3.1-10.8,6.2-16.2,9.3
	c-5.2,3-10.4,6-15.5,9c-0.9,0.5-1.6,0.5-2.5,0c-10.3-6-20.7-12-31.1-18c-1.2-0.7-1.8-1.4-1.6-2.8C0.1,84.3,0.1,83.8,0.1,83.1z"/>
<path class="st1" d="M54.9,75.8L34.6,87.7c-0.5,0.3-0.5,0.3-1.1,0L13.4,76.1c-1.1-0.7-1-0.6,0-1.3l19.4-11.4c1.1-0.7,1.3-0.7,2-0.3
	l18.5,10.7C55.4,75.3,56,75.3,54.9,75.8z"/>
<path class="st1" d="M54.9,67.6L34.6,79.5c-0.5,0.3-0.5,0.3-1.1,0L13.4,67.9c-1.1-0.7-1-0.6,0-1.3l19.4-11.4c1.1-0.7,1.3-0.7,2-0.3
	l18.5,10.7C55.4,67.1,56,67.1,54.9,67.6z"/>
<path class="st1" d="M54.9,57.4L34.6,69.3c-0.5,0.3-0.5,0.3-1.1,0L13.4,57.7c-1.1-0.7-1-0.6,0-1.3L32.8,45c1.1-0.7,1.3-0.7,2-0.3
	l18.5,10.7C55.4,56.9,56,56.9,54.9,57.4z"/>
<path class="st1" d="M54.9,48L34.6,59.9c-0.5,0.3-0.5,0.3-1.1,0L13.4,48.3c-1.1-0.7-1-0.6,0-1.3l19.4-11.4c1.1-0.7,1.3-0.7,2-0.3
	L53.2,46C55.4,47.5,56,47.5,54.9,48z"/>
<path class="st1" d="M54.9,39.9L34.6,51.8c-0.5,0.3-0.5,0.3-1.1,0L13.4,40.2c-1.1-0.7-1-0.6,0-1.3l19.4-11.4c1.1-0.7,1.3-0.7,2-0.3
	l18.5,10.7C55.4,39.3,56,39.4,54.9,39.9z"/>
<path class="st1" d="M54.9,29.7L34.6,41.6c-0.5,0.3-0.5,0.3-1.1,0L13.4,30c-1.1-0.7-1-0.6,0-1.3l19.4-11.4c1.1-0.7,1.3-0.7,2-0.3
	l18.5,10.7C55.4,29.2,56,29.2,54.9,29.7z"/>
<path class="st1" d="M54.9,20.2L34.6,32.1c-0.5,0.3-0.5,0.3-1.1,0L13.4,20.5c-1.1-0.7-1-0.6,0-1.3L32.8,7.8c1.1-0.7,1.3-0.7,2-0.3
	l18.5,10.7C55.4,19.7,56,19.7,54.9,20.2z"/>
<path class="st0" d="M189,30.2c6.4,0.1,11.5,1.5,15.4,5.7c5.3,5.7,6.1,12.6,3.8,19.7c-2.2,6.9-7.4,10.7-14.5,12
	c-5.2,0.9-10.2,0.3-14.7-2.5c-6.3-3.9-9-9.8-8.7-17c0.4-9.3,5.5-15.4,14.6-17.5C186.5,30.3,188.2,30.3,189,30.2z M179.6,49.1
	c0,0.3,0,0.9,0.1,1.4c0.5,3.8,2.2,7,5.8,8.6c3.6,1.6,7.2,1.3,10.4-1.1c3.4-2.5,4.4-6.1,4.2-10.2c-0.4-6.8-6.3-11.2-12.9-9.6
	C182.7,39.4,179.6,43.6,179.6,49.1z"/>
<path class="st0" d="M66.7,31.2c2.8,0,5.5,0,8.4,0c0,0.4,0.1,0.9,0.1,1.3c0,3.6,0,7.3,0,10.9c0,1.1,0.3,1.4,1.4,1.4
	c4.1-0.1,8.2,0,12.5,0c0-4.5,0-9,0-13.5c3,0,5.8,0,8.7,0c0,11.9,0,23.8,0,35.7c-2.9,0-5.7,0-8.6,0c0-4.9,0-9.8,0-14.8
	c-0.5,0-0.9-0.1-1.3-0.1c-3.8,0-7.6,0-11.4,0c-1.1,0-1.4,0.4-1.3,1.4c0.1,4.1,0,8.2,0,12.2c0,1-0.2,1.5-1.3,1.4
	c-2.1-0.1-4.2,0-6.4,0c-0.7,0-0.9-0.2-0.9-0.9c0-11.5,0-23,0-34.5C66.6,31.5,66.7,31.4,66.7,31.2z"/>
<path class="st0" d="M140.7,67c-3.1,0-6.1,0-9.1,0c-0.3,0-0.7-0.5-0.8-0.8c-0.7-1.8-1.4-3.6-2.2-5.3c-0.2-0.4-0.7-0.8-1.1-0.8
	c-4-0.1-8.1,0-12.1-0.1c-0.8,0-1.1,0.3-1.3,1c-0.6,1.7-1.2,3.3-1.8,4.9c-0.3,0.8-0.7,1.2-1.6,1.1c-2.7-0.1-5.4,0-8.3,0
	c0.8-1.8,1.4-3.4,2.1-5.1c4.2-9.9,8.3-19.8,12.4-29.7c0.4-0.9,0.8-1.2,1.7-1.1c1.9,0.1,3.8,0.1,5.7,0c1.1-0.1,1.6,0.3,2,1.3
	c2.8,6.9,5.7,13.8,8.5,20.6c1.7,4.1,3.4,8.3,5.2,12.4C140.3,65.9,140.5,66.4,140.7,67z M126,53c-1.5-4.1-2.9-8-4.4-12.2
	C120,45,118.5,49,117,53C120,53,122.9,53,126,53z"/>
<path class="st0" d="M145.3,31.2c2.9,0,5.7,0,8.7,0c0,9.4,0,18.7,0,28.2c4.7,0,9.2,0,13.8,0c0,2.6,0,5,0,7.5c-7.4,0-14.9,0-22.5,0
	C145.3,55.1,145.3,43.2,145.3,31.2z"/>
</svg>
