<svg xmlns="http://www.w3.org/2000/svg" xmlns:xlink="http://www.w3.org/1999/xlink" width="45px" height="39px" viewBox="0 0 45 39" version="1.1">
    <title>Group 14</title>
    <defs>
        <polygon id="path-1" points="0 0 14.6153846 0 14.6153846 10 0 10"/>
    </defs>
    <g id="Page-1" stroke="none" stroke-width="1" fill="none" fill-rule="evenodd">
        <g id="homepage" transform="translate(-219.000000, -4072.000000)">
            <g id="Group-20" transform="translate(196.000000, 4046.000000)">
                <g id="Group-14" transform="translate(23.076923, 26.923077)">
                    <path d="M0,12.3126881 C3.88148605,12.3136857 7.76297209,12.3192178 11.6443697,12.3076923 C11.9744154,12.3067932 12.1142338,12.3845152 12.2152285,12.7313167 C14.5125482,20.624587 16.8264941,28.5128693 19.1320384,36.4036909 C19.1763452,36.5554166 19.2816733,36.7047843 19.2015496,36.9230769 C18.8309115,36.4507594 18.4731851,35.9973056 18.117935,35.5418566 C12.1780851,27.9280953 6.23876585,20.3140618 0.297589441,12.701298 C0.211363674,12.590746 0.156709803,12.4417411 0,12.4031975 L0,12.3126881 Z" id="Fill-1" fill="#FFFFFF"/>
                    <path d="M22.311624,37.6923077 C21.9380175,36.4753111 21.5986574,35.3764941 21.2633786,34.276367 C19.0882804,27.1396467 16.9141581,20.0026645 14.7400358,12.8656823 C14.7189201,12.7964166 14.7138629,12.7199886 14.6814796,12.6567498 C14.5235552,12.3494654 14.6624044,12.3065783 14.9518142,12.3076923 C17.281288,12.3164485 19.6109392,12.3126052 21.9405017,12.3126052 C24.5207026,12.3126052 27.1009035,12.3156623 29.6811045,12.3081506 C29.9615534,12.3073644 30.0631396,12.3233488 29.9614647,12.655527 C27.4469177,20.8709745 24.9453241,29.0902653 22.4410688,37.3087699 C22.4136538,37.3986493 22.381093,37.4869564 22.311624,37.6923077" id="Fill-3" fill="#FFFFFF"/>
                    <path d="M44.6153846,12.3296264 C38.1897711,20.5756481 31.8203787,28.7493625 25.4510745,36.9230769 C25.4289214,36.9086698 25.4067684,36.8942627 25.3846154,36.8798556 C26.0751544,34.5143742 26.7647225,32.1485302 27.4565854,29.7834112 C29.1225636,24.0877167 30.7903953,18.3926565 32.453108,12.6958747 C32.5193023,12.4689856 32.5554002,12.3065207 32.8660722,12.3076923 C36.6962511,12.3217433 40.5265183,12.3168503 44.3568738,12.3172128 C44.4115062,12.3172128 44.4662268,12.322287 44.6153846,12.3296264" id="Fill-5" fill="#FFFFFF"/>
                    <g id="Group-9" transform="translate(15.384615, 0.000000)">
                        <mask id="mask-2" fill="white">
                            <use xlink:href="#path-1"/>
                        </mask>
                        <g id="Clip-8"/>
                        <path d="M14.6153846,10 L0,10 C0.195695657,9.4581263 0.384905108,8.93292427 0.575224041,8.40807509 C1.54226612,5.74095914 2.51357544,3.07543097 3.47114424,0.404698415 C3.57236319,0.122338375 3.68433559,-0.00256690945 4.0041226,-4.72948439e-05 C6.21626016,0.0179860081 8.42856841,0.011634892 10.6407913,0.00616587528 C10.8681499,0.0056366156 11.0252697,0.0228375552 11.1229895,0.295141661 C12.2579048,3.45852677 13.4071581,6.61644286 14.5518027,9.77612316 C14.57587,9.84254525 14.5908053,9.91258394 14.6153846,10" id="Fill-7" fill="#FFFFFF" mask="url(#mask-2)"/>
                    </g>
                    <path d="M16.1538462,0.00578847315 C15.3776922,2.06831478 14.6286289,4.06004137 13.8785917,6.05141571 C13.4209734,7.26654681 12.9583088,8.47991672 12.5064451,9.69716124 C12.4339379,9.89265302 12.3599258,10.0006138 12.1138973,10 C8.36300312,9.99013473 4.61202043,9.99268845 0.861037728,9.9912795 C0.835894839,9.99119144 0.810751949,9.97551687 0.769230769,9.96169155 C0.778880681,9.81392795 0.908667569,9.7518461 0.993657618,9.667133 C4.02895328,6.64431938 7.07071172,3.62775797 10.0991019,0.598163782 C10.5122775,0.18481315 10.9677711,-0.00618759969 11.550307,0.000152674166 C13.063484,0.0168839524 14.5769266,0.00578847315 16.1538462,0.00578847315" id="Fill-10" fill="#FFFFFF"/>
                    <path d="M44.6153846,9.99320444 C44.4010783,9.99320444 44.2746155,9.99320444 44.1481527,9.99320444 C40.5504583,9.99320444 36.9527639,9.9895019 33.3551579,10 C33.0512406,10.000874 32.9048054,9.92514831 32.7927475,9.62365614 C31.6484845,6.54420448 30.4841606,3.4721579 29.3302649,0.396232478 C29.2864315,0.279249988 29.1946996,0.165793722 29.245868,0.00138351599 C30.867791,0.00138351599 32.4939559,-0.00372950919 34.1200325,0.00570314072 C34.4505502,0.00764256406 34.7546442,0.133705082 34.9930765,0.371989686 C38.1772703,3.55379 41.3596965,6.73726526 44.6153846,9.99320444" id="Fill-12" fill="#FFFFFF"/>
                </g>
            </g>
        </g>
    </g>
</svg>