<?xml version="1.0" encoding="UTF-8"?>
<svg width="182px" height="63px" viewBox="0 0 182 63" version="1.1" xmlns="http://www.w3.org/2000/svg" xmlns:xlink="http://www.w3.org/1999/xlink">
    <title>Group 42</title>
    <defs>
        <polygon id="path-1" points="0 61.636 181.096 61.636 181.096 0 0 0"></polygon>
    </defs>
    <g id="Symbols" stroke="none" stroke-width="1" fill="none" fill-rule="evenodd">
        <g id="Footer" transform="translate(-2.000000, -5.000000)">
            <g id="Group-42" transform="translate(2.000000, 5.500000)">
                <path d="M30.8182,61.636 C47.8122,61.636 61.6362,47.81 61.6362,30.818 C61.6362,13.824 47.8122,0 30.8182,0 C13.8242,0 0.0002,13.824 0.0002,30.818 C0.0002,47.81 13.8242,61.636 30.8182,61.636 M30.8182,56.089 C16.8832,56.089 5.5482,44.753 5.5482,30.818 C5.5482,16.883 16.8832,5.547 30.8182,5.547 C44.7532,5.547 56.0892,16.883 56.0892,30.818 C56.0892,44.753 44.7532,56.089 30.8182,56.089" id="Fill-1" fill="#141A37"></path>
                <path d="M24.7575,35.9539 C24.7575,35.9539 35.5745,25.1319 36.1125,24.5999 C39.4445,21.2949 41.7755,19.9079 46.0615,19.7409 L48.5935,19.7409 C49.3645,19.6679 49.7315,18.8869 49.6975,18.4169 C49.6375,17.5659 48.1585,16.0039 47.6805,15.4789 C44.1595,11.6119 39.3295,8.9569 33.8985,8.2189 L33.8915,8.2189 C33.7075,8.1939 33.5225,8.1719 33.3365,8.1509 C33.3145,8.1479 33.2935,8.1459 33.2705,8.1439 C33.1035,8.1249 32.9365,8.1099 32.7675,8.0959 C32.7295,8.0919 32.6915,8.0889 32.6535,8.0859 C32.4995,8.0729 32.3435,8.0629 32.1875,8.0539 C32.1385,8.0509 32.0895,8.0479 32.0405,8.0439 C31.8865,8.0369 31.7325,8.0309 31.5795,8.0259 C31.5295,8.0249 31.4795,8.0219 31.4285,8.0199 C31.2265,8.0149 31.0225,8.0119 30.8185,8.0119 C27.1175,8.0119 23.6195,8.8929 20.5205,10.4549 C14.6955,13.4469 11.7875,18.2009 11.4155,18.8549 C10.8685,19.8179 11.3755,20.7179 12.3925,20.7349 C12.3925,20.7349 17.9385,19.9059 21.7445,23.1999 C22.1585,23.5579 25.5625,27.0589 25.5625,27.0589 L28.8035,23.8329 L25.6515,20.6509 C23.8555,18.8699 21.3025,17.4789 18.8125,16.7499 C21.9795,14.0729 26.1665,12.3269 30.8185,12.3269 C34.9465,12.3269 38.7625,13.6879 41.8425,15.9839 C38.1715,16.9429 36.0585,19.0389 33.2635,21.8099 C32.7325,22.3359 24.2845,30.8139 24.2845,30.8139 C18.5045,36.5989 16.0225,36.2559 15.4095,36.2559 L9.9525,36.2559 C9.5435,36.2559 9.2475,36.6469 9.3575,37.0399 C9.6625,38.1319 10.0615,39.1059 10.5165,40.1249 C10.6155,40.3459 10.8385,40.4859102 11.0805,40.4859102 L15.3255,40.4859102 C16.8545,40.4859102 20.1875,40.5239 24.7575,35.9539" id="Fill-3" fill="#141A37"></path>
                <path d="M36.8799,25.6805 C36.8799,25.6805 26.0629,36.5025 25.5249,37.0355 C22.1929,40.3395 19.8619,41.7265 15.5759,41.8935 L13.0439,41.8935 C12.2729,41.9675 11.9059,42.7485 11.9389,43.2175 C11.9999,44.0705 13.4789,45.6305 13.9559,46.1555 C17.4779,50.0235 22.3079,52.6795 27.7389,53.4145 C27.7409,53.4155 27.7439,53.4155 27.7459,53.4165 C27.9299,53.4415 28.1149,53.4635 28.3009,53.4845 C28.3219,53.4865 28.3439,53.4885 28.3669,53.4925 C28.5339,53.5095 28.7009,53.5245 28.8699,53.5385 C28.9079,53.5425 28.9459,53.5465 28.9839,53.5485 C29.1379,53.5615 29.2939,53.5715 29.4499,53.5815 C29.4989,53.5835 29.5479,53.5865 29.5959,53.5905 C29.7509,53.5985 29.9049,53.6045 30.0579,53.6085 C30.1079,53.6095 30.1579,53.6135 30.2069,53.6145 C30.4109,53.6195 30.6149,53.6225 30.8189,53.6225 C34.5199,53.6225 38.0179,52.7415 41.1169,51.1795 C46.9419,48.1875 49.8499,43.4335 50.2219,42.7795 C50.7689,41.8165 50.2619,40.9165 49.2449,40.8995 C49.2449,40.8995 43.6989,41.7285 39.8929,38.4355 C39.4789,38.0775 36.0749,34.5735 36.0749,34.5735 L32.8339,37.8015 L35.9859,40.9835 C37.7819,42.7645 40.3329,44.1565 42.8249,44.8855 C39.6579,47.5625 35.4709,49.3085 30.8189,49.3085 C26.6909,49.3085 22.8749,47.9465 19.7949,45.6505 C23.4659,44.6915 25.5789,42.5965 28.3739,39.8245 C28.9049,39.2995 37.3529,30.8215 37.3529,30.8215 C43.1329,25.0365 45.6149,25.3785 46.2279,25.3785 L51.6849,25.3785 C52.0939,25.3785 52.3899,24.9875 52.2799,24.5925 C51.9749,23.5025 51.5759,22.5285 51.1209,21.5105 C51.0219,21.2885 50.7989,21.1484898 50.5569,21.1484898 L46.3119,21.1484898 C44.7829,21.1484898 41.4499,21.1105 36.8799,25.6805" id="Fill-5" fill="#141A37"></path>
                <path d="M73.9645,20.5654 L76.0185,20.5654 L76.0185,41.1114 L71.9105,41.1114 L71.9105,22.6204 C71.9105,21.6294 72.7355,20.5654 73.9645,20.5654" id="Fill-7" fill="#141A37"></path>
                <path d="M142.4491,20.5654 L144.5031,20.5654 L144.5031,41.1114 L140.3951,41.1114 L140.3951,22.6204 C140.3951,21.6294 141.2201,20.5654 142.4491,20.5654" id="Fill-9" fill="#141A37"></path>
                <path d="M129.1417,20.5654 L122.5677,20.5654 L122.5677,41.1114 L126.6767,41.1114 L126.6767,24.6884 L129.1417,24.6884 C130.5707,24.6884 131.6077,25.7264 131.6077,27.1604 L131.6077,41.1114 L135.7157,41.1114 L135.7157,27.1394 C135.7157,23.9004 133.2347,20.5654 129.1417,20.5654" id="Fill-11" fill="#141A37"></path>
                <path d="M88.0589,20.5654 L81.4849,20.5654 L81.4849,41.1114 L85.5929,41.1114 L85.5929,24.6884 L88.0589,24.6884 C89.4879,24.6884 90.5239,25.7264 90.5239,27.1604 L90.5239,41.1114 L94.6329,41.1114 L94.6329,27.1394 C94.6329,23.9004 92.1519,20.5654 88.0589,20.5654" id="Fill-13" fill="#141A37"></path>
                <path d="M105.96,24.6754 L108.343,24.6754 L108.343,20.5664 L105.96,20.5664 C102.29,20.5664 99.304,23.5524 99.304,27.2224 L99.304,41.1124 L103.412,41.1124 L103.412,33.7154 L108.343,33.7154 L108.343,29.5974 L103.412,29.5974 L103.412,27.2224 C103.412,25.9974 104.386,24.6754 105.96,24.6754" id="Fill-15" fill="#141A37"></path>
                <polygon id="Fill-17" fill="#141A37" points="154.0916 41.111 158.2006 41.111 158.2006 24.675 163.1326 24.675 163.1326 20.565 149.1616 20.565 149.1616 24.675 154.0916 24.675"></polygon>
                <path d="M115.0553,20.5654 L117.1093,20.5654 L117.1093,41.1114 L113.0013,41.1114 L113.0013,22.6204 C113.0013,21.6294 113.8263,20.5654 115.0553,20.5654" id="Fill-19" fill="#141A37"></path>
                <polygon id="Fill-21" fill="#141A37" points="82.5931 45.1098 84.2691 45.1098 84.2691 53.1198 89.1671 53.1198 89.1671 54.6448 82.5931 54.6448"></polygon>
                <polygon id="Fill-23" fill="#141A37" points="131.4691 46.6619 128.7791 46.6619 128.7791 45.1099 135.8481 45.1099 135.8481 46.6619 133.1581 46.6619 133.1581 54.6439 131.4691 54.6439"></polygon>
                <path d="M147.0944,49.904 L147.0944,49.877 C147.0944,48.936 146.7984,48.133 146.1924,47.479 C145.5854,46.812 144.8164,46.484 143.8874,46.484 C142.9584,46.484 142.2034,46.812 141.5974,47.465 C141.0044,48.106 140.7084,48.909 140.7084,49.85 L140.7084,49.877 C140.7084,50.816 141.0044,51.62 141.6104,52.261 C142.2164,52.928 142.9854,53.255 143.9144,53.255 C144.8444,53.255 145.5984,52.928 146.2054,52.274 C146.7984,51.633 147.0944,50.843 147.0944,49.904 M138.9704,49.904 L138.9704,49.877 C138.9704,48.515 139.4284,47.357 140.3584,46.404 C141.3014,45.435 142.4874,44.946 143.9144,44.946 C145.3434,44.946 146.5284,45.423 147.4584,46.39 C148.3744,47.329 148.8314,48.486 148.8314,49.85 L148.8314,49.877 C148.8314,51.239 148.3744,52.397 147.4444,53.35 C146.5014,54.318 145.3164,54.808 143.8874,54.808 C142.4594,54.808 141.2744,54.331 140.3444,53.364 C139.4284,52.425 138.9704,51.266 138.9704,49.904" id="Fill-25" fill="#141A37"></path>
                <polygon id="Fill-27" fill="#141A37" points="78.4841 54.4195 78.4841 52.9915 73.5511 52.9915 71.9101 54.4195"></polygon>
                <mask id="mask-2" fill="white">
                    <use xlink:href="#path-1"></use>
                </mask>
                <g id="Clip-30"></g>
                <polygon id="Fill-29" fill="#141A37" mask="url(#mask-2)" points="73.551 50.552 78.484 50.552 78.484 49.124 73.551 49.124"></polygon>
                <polygon id="Fill-31" fill="#141A37" mask="url(#mask-2)" points="78.4841 46.7619 78.4841 45.3339 71.9101 45.3339 73.5511 46.7619"></polygon>
                <polygon id="Fill-32" fill="#141A37" mask="url(#mask-2)" points="99.8513 54.4195 99.8513 52.9915 94.9183 52.9915 93.2773 54.4195"></polygon>
                <polygon id="Fill-33" fill="#141A37" mask="url(#mask-2)" points="94.919 50.552 99.852 50.552 99.852 49.124 94.919 49.124"></polygon>
                <polygon id="Fill-34" fill="#141A37" mask="url(#mask-2)" points="99.8513 46.7619 99.8513 45.3339 93.2773 45.3339 94.9183 46.7619"></polygon>
                <polygon id="Fill-35" fill="#141A37" mask="url(#mask-2)" points="104.0433 44.9458 105.9863 44.9458 109.0023 52.4708 112.0043 44.9458 113.9053 44.9458 109.7603 54.8068 108.2013 54.8068"></polygon>
                <polygon id="Fill-36" fill="#141A37" mask="url(#mask-2)" points="126.0677 54.8079 124.1237 54.8079 121.1067 47.2819 118.1067 54.8079 116.2057 54.8079 120.3507 44.9469 121.9077 44.9469"></polygon>
                <path d="M158.9348,51.0528 C160.4508,50.6158 161.2028,49.6448 161.2028,48.1558 L161.2028,48.1288 C161.2028,47.2958 160.9428,46.6118 160.4108,46.0658 C159.7538,45.4228 158.8388,45.1098 157.6508,45.1098 L152.9688,45.1098 L152.9688,54.6728 L154.6488,54.6728 L154.6488,46.6398 L157.5138,46.6398 C158.8388,46.6398 159.4948,47.1718 159.4948,48.2248 L159.4948,48.2518 C159.4948,48.7298 159.3168,49.1258 158.9618,49.4138 C158.6068,49.7008 158.1288,49.8498 157.5268,49.8498 L157.1728,49.8498 L157.1728,51.3398 L159.5218,54.6728 L161.5168,54.6728 L158.9348,51.0528 Z" id="Fill-37" fill="#141A37" mask="url(#mask-2)"></path>
                <polygon id="Fill-38" fill="#141A37" mask="url(#mask-2)" points="71.91 54.419 73.553 54.419 73.553 45.334 71.91 45.334"></polygon>
                <polygon id="Fill-39" fill="#141A37" mask="url(#mask-2)" points="93.278 54.419 94.921 54.419 94.921 45.334 93.278 45.334"></polygon>
                <path d="M176.9886,20.6335 L176.9886,24.7045 C176.9886,28.2215 174.4426,29.8875 174.4426,29.8875 C174.4426,29.8875 171.9136,28.0225 171.9136,24.7045 L171.9246,20.5895 L167.7886,20.5895 L167.7886,24.6975 C167.7886,30.7315 172.4246,33.4735 172.4246,33.4735 L172.4246,41.1125 L176.4466,41.1125 L176.4466,33.5155 C176.4466,33.5155 181.0956,30.7455 181.0956,24.6975 L181.0956,20.6325 L176.9886,20.6335 Z" id="Fill-40" fill="#141A37" mask="url(#mask-2)"></path>
                <path d="M179.4288,16.2808 C179.3288,16.2248 179.1688,16.1978 178.9468,16.1978 L178.6078,16.1978 L178.6078,17.0148 L178.9658,17.0148 C179.1348,17.0148 179.2618,16.9988 179.3468,16.9648 C179.5008,16.9038 179.5788,16.7858 179.5788,16.6128 C179.5788,16.4488 179.5308,16.3388 179.4288,16.2808 L179.4288,16.2808 Z M178.9998,15.9258 C179.2798,15.9258 179.4868,15.9528 179.6178,16.0058 C179.8488,16.1038 179.9638,16.2958 179.9638,16.5808 C179.9638,16.7798 179.8918,16.9288 179.7448,17.0258 C179.6668,17.0768 179.5598,17.1118 179.4198,17.1348 C179.5948,17.1628 179.7228,17.2358 179.8068,17.3538 C179.8888,17.4748 179.9288,17.5898 179.9288,17.7038 L179.9288,17.8698 C179.9288,17.9218 179.9308,17.9778 179.9348,18.0388 C179.9388,18.0978 179.9458,18.1358 179.9548,18.1548 L179.9698,18.1828 L179.5948,18.1828 C179.5948,18.1748 179.5918,18.1668 179.5918,18.1608 C179.5878,18.1528 179.5868,18.1438 179.5858,18.1358 L179.5768,18.0638 L179.5768,17.8848 C179.5768,17.6238 179.5058,17.4518 179.3638,17.3698 C179.2798,17.3198 179.1338,17.2958 178.9218,17.2958 L178.6078,17.2958 L178.6078,18.1828 L178.2098,18.1828 L178.2098,15.9258 L178.9998,15.9258 Z M177.7908,15.8098 C177.4468,16.1568 177.2748,16.5738 177.2748,17.0648 C177.2748,17.5558 177.4468,17.9738 177.7878,18.3218 C178.1308,18.6708 178.5498,18.8428 179.0398,18.8428 C179.5308,18.8428 179.9478,18.6708 180.2908,18.3218 C180.6348,17.9738 180.8058,17.5558 180.8058,17.0648 C180.8058,16.5738 180.6348,16.1568 180.2908,15.8098 C179.9458,15.4648 179.5268,15.2928 179.0398,15.2928 C178.5528,15.2928 178.1368,15.4648 177.7908,15.8098 L177.7908,15.8098 Z M180.4958,18.5188 C180.0948,18.9218 179.6078,19.1218 179.0398,19.1218 C178.4698,19.1218 177.9858,18.9218 177.5868,18.5188 C177.1898,18.1178 176.9888,17.6308 176.9888,17.0598 C176.9888,16.4948 177.1928,16.0118 177.5928,15.6098 C177.9888,15.2128 178.4728,15.0128 179.0398,15.0128 C179.6078,15.0128 180.0948,15.2128 180.4958,15.6098 C180.8988,16.0098 181.0958,16.4918 181.0958,17.0598 C181.0958,17.6298 180.8988,18.1158 180.4958,18.5188 L180.4958,18.5188 Z" id="Fill-41" fill="#141A37" mask="url(#mask-2)"></path>
            </g>
        </g>
    </g>
</svg>