<?xml version="1.0" encoding="UTF-8"?>
<svg width="154px" height="50px" viewBox="0 0 154 50" version="1.1" xmlns="http://www.w3.org/2000/svg" xmlns:xlink="http://www.w3.org/1999/xlink">
    <title>Group 50</title>
    <defs>
        <polygon id="path-1" points="0 0 2.49706331 0 2.49706331 12.4867849 0 12.4867849"></polygon>
    </defs>
    <g id="Page-1" stroke="none" stroke-width="1" fill="none" fill-rule="evenodd">
        <g id="homepage" transform="translate(-50.000000, -49.000000)">
            <g id="Group-50" transform="translate(50.000000, 49.000000)">
                <path d="M20.0834019,29.1665688 C20.0834019,29.1665688 28.8582168,20.3878382 29.294804,19.9551666 C31.9975332,17.274952 33.8877795,16.1511805 37.3657935,16.0141352 L39.4195153,16.0141352 C40.0450292,15.9544226 40.3426133,15.3220565 40.3152042,14.9402874 C40.2662594,14.2491875 39.067113,12.9834763 38.6784917,12.5576569 C35.822076,9.42029837 31.9035593,7.26575042 27.4985317,6.66764556 C27.4965739,6.66764556 27.495595,6.66764556 27.4936372,6.66764556 C27.3438662,6.64708877 27.1931164,6.62946866 27.0423666,6.61282744 C27.0247465,6.61086965 27.0071264,6.60793297 26.9895062,6.60597518 C26.8534398,6.59129175 26.7173734,6.57954501 26.581307,6.56779827 C26.5499824,6.56486158 26.5196366,6.5619249 26.4892909,6.55996711 C26.3630134,6.54919926 26.236736,6.5413681 26.1104585,6.53353694 C26.0713027,6.53157915 26.031168,6.52864247 25.9910333,6.52668468 C25.8667137,6.51983241 25.742394,6.51591683 25.6170954,6.51102236 C25.5769607,6.51004346 25.5358471,6.50808567 25.4957124,6.50612788 C25.3312581,6.5022123 25.1658248,6.50025451 25.0003916,6.50025451 L25.0003916,6.50025451 L24.9994127,6.50025451 C21.9981205,6.50025451 19.1603038,7.21484788 16.6465014,8.48153804 C11.9213752,10.9091977 9.56223815,14.7660441 9.26073848,15.2956263 C8.81632014,16.0767845 9.22745605,16.8070402 10.0526646,16.8197658 C10.0526646,16.8197658 14.5516661,16.1482439 17.639101,18.8196484 C17.9738831,19.1103802 20.7363248,21.9521125 20.7363248,21.9521125 L23.3666158,19.3335683 L20.8087631,16.7522221 C19.3511884,15.3083519 17.2818043,14.179686 15.261365,13.5884334 C17.8299855,11.4162653 21.2257723,9.99980422 25.0003916,9.99980422 C28.3491914,9.99980422 31.4444575,11.1049767 33.9435765,12.966835 C30.9647989,13.7450566 29.2507537,15.4444183 26.9836329,17.6929402 C26.5529191,18.1197384 19.699675,24.996476 19.699675,24.996476 C15.0107678,29.6892987 12.9971808,29.4112925 12.4999021,29.4112925 L8.07333882,29.4112925 C7.7414934,29.4112925 7.50068523,29.7294334 7.59074357,30.0485532 C7.83840401,30.9334743 8.16143937,31.7234426 8.53146169,32.54963 C8.61173108,32.7297467 8.79184776,32.8433064 8.98860566,32.8433064 L12.4313795,32.8433064 C13.6726183,32.8433064 16.3763264,32.8736442 20.0834019,29.1665688" id="Fill-1" fill="#0F135A"></path>
                <path d="M29.9168918,20.8332354 C29.9168918,20.8332354 21.1420768,29.611966 20.7054896,30.0446376 C18.0027605,32.7248522 16.1125142,33.8486237 12.6345002,33.985669 L10.5807784,33.985669 C9.9552645,34.0453816 9.65768041,34.6787267 9.68508947,35.0595168 C9.73403422,35.7506167 10.9331806,37.016328 11.3218019,37.4421473 C14.1782176,40.5804847 18.0967344,42.7350327 22.501762,43.3321587 C22.5037198,43.3321587 22.5056776,43.3321587 22.5066565,43.3321587 C22.6564274,43.3527155 22.8071773,43.3703356 22.9579271,43.3879557 C22.9755472,43.3899135 22.9931673,43.3918713 23.0107874,43.393829 C23.1468538,43.4085125 23.2829202,43.4202592 23.4189866,43.432006 C23.4503113,43.4349426 23.480657,43.4378793 23.5110028,43.440816 C23.6372802,43.450605 23.7635577,43.4584361 23.8898352,43.4662673 C23.9299699,43.4682251 23.9691257,43.4711618 24.0082815,43.4731195 C24.13358,43.4799718 24.2578997,43.4848663 24.3831982,43.4887819 C24.4233329,43.4897608 24.4644465,43.4926974 24.5045812,43.4936763 C24.6690356,43.4975919 24.8344689,43.4995497 24.9999021,43.4995497 L24.9999021,43.4995497 L25.000881,43.4995497 C28.0021731,43.4995497 30.8399898,42.7849563 33.3537922,41.5182662 C38.0789185,39.0906065 40.4380555,35.234739 40.7395552,34.7041779 C41.1839735,33.9230197 40.7728376,33.192764 39.9476291,33.1800384 C39.9476291,33.1800384 35.4486276,33.8515604 32.3611927,31.1801558 C32.0264106,30.889424 29.2639688,28.0476918 29.2639688,28.0476918 L26.6336779,30.666236 L29.1915306,33.2475821 C30.6491053,34.6914523 32.7184894,35.8201183 34.7389287,36.4113708 C32.1703082,38.5835389 28.7735424,40 24.9999021,40 C21.6511022,40 18.5558362,38.8948275 16.0567172,37.0329692 C19.0354947,36.2547476 20.7495399,34.5553859 23.0166608,32.306864 C23.4473746,31.8800658 30.3006187,25.0033282 30.3006187,25.0033282 C34.9905047,20.3105055 37.0031129,20.5885117 37.5003916,20.5885117 L41.9269549,20.5885117 C42.2588003,20.5885117 42.4996084,20.2713497 42.4095501,19.951251 C42.1618897,19.0663299 41.8388543,18.2763616 41.468832,17.4501742 C41.3885626,17.2700576 41.2084459,17.1564979 41.011688,17.1564979 L37.5689142,17.1564979 C36.3276753,17.1564979 33.6239673,17.12616 29.9168918,20.8332354" id="Fill-3" fill="#0F135A"></path>
                <path d="M25,50 C38.7847997,50 50,38.7847997 50,25 C50,11.2152003 38.7847997,0 25,0 C11.2152003,0 0,11.2152003 0,25 C0,38.7847997 11.2152003,50 25,50 M25,45.5000196 C13.6966992,45.5000196 4.49998042,36.3042797 4.49998042,25 C4.49998042,13.6966992 13.6966992,4.49998042 25,4.49998042 C36.3042797,4.49998042 45.5000196,13.6966992 45.5000196,25 C45.5000196,36.3042797 36.3042797,45.5000196 25,45.5000196" id="Fill-5" fill="#0F135A"></path>
                <path d="M47.2275735,2.40798387 C47.1355574,2.35708133 46.989702,2.33260895 46.7880496,2.33260895 L46.4787188,2.33260895 L46.4787188,3.07754806 L46.8046909,3.07754806 C46.9583774,3.07754806 47.0748659,3.06286464 47.1521986,3.03154 C47.2921806,2.97574298 47.3646188,2.86806453 47.3646188,2.71046243 C47.3646188,2.5597126 47.3205685,2.4598653 47.2275735,2.40798387 L47.2275735,2.40798387 Z M46.8350366,2.08299072 C47.0915071,2.08299072 47.279455,2.10844199 47.3988801,2.15738674 C47.6103215,2.24744508 47.7150632,2.4207095 47.7150632,2.68109558 C47.7150632,2.86317005 47.6504562,2.99923646 47.5153687,3.08733701 C47.4429304,3.13334508 47.3469987,3.16662751 47.2187635,3.18718431 C47.3783233,3.21165668 47.4957908,3.27920044 47.5721446,3.38687889 C47.6465406,3.49651513 47.6837386,3.6012569 47.6837386,3.70599867 L47.6837386,3.8567485 C47.6837386,3.90471436 47.6856964,3.9556169 47.6886331,4.01043502 C47.6925487,4.06525314 47.6994009,4.09951447 47.7072321,4.11713458 L47.7199577,4.14160695 L47.3783233,4.14160695 C47.3783233,4.13573358 47.3763656,4.12888132 47.3763656,4.12202905 C47.3734289,4.11615568 47.3714711,4.10734563 47.3695133,4.09951447 L47.362661,4.0339285 L47.362661,3.87045303 C47.362661,3.63258154 47.298054,3.47595834 47.1678609,3.40058342 C47.0915071,3.35457536 46.9573985,3.33303966 46.7655351,3.33303966 L46.4787188,3.33303966 L46.4787188,4.14160695 L46.1155488,4.14160695 L46.1155488,2.08299072 L46.8350366,2.08299072 Z M45.7337797,1.97824895 C45.4195544,2.29443205 45.2619523,2.67522221 45.2619523,3.12159834 C45.2619523,3.56993226 45.4195544,3.95268021 45.730843,4.2698422 C46.0431105,4.58700419 46.4248796,4.74460629 46.8722346,4.74460629 C47.3205685,4.74460629 47.7003798,4.58700419 48.0126473,4.2698422 C48.3278515,3.95268021 48.4834958,3.56993226 48.4834958,3.12159834 C48.4834958,2.67522221 48.3278515,2.29443205 48.0126473,1.97824895 C47.6994009,1.66304476 47.3176319,1.50544266 46.8722346,1.50544266 C46.4278163,1.50544266 46.0489839,1.66304476 45.7337797,1.97824895 L45.7337797,1.97824895 Z M48.2005952,4.44995889 C47.8354673,4.81704452 47.391049,5.00009789 46.8722346,5.00009789 C46.3524414,5.00009789 45.9109597,4.81704452 45.5468108,4.44995889 C45.1836407,4.08287325 45.0015662,3.63943381 45.0015662,3.11866165 C45.0015662,2.60278398 45.1865774,2.16228122 45.5517052,1.79519558 C45.9138964,1.43300442 46.355378,1.24995106 46.8722346,1.24995106 C47.391049,1.24995106 47.8354673,1.43300442 48.2005952,1.79519558 C48.5686597,2.16032343 48.7487764,2.60082619 48.7487764,3.11866165 C48.7487764,3.63747602 48.5686597,4.08091546 48.2005952,4.44995889 L48.2005952,4.44995889 Z" id="Fill-7" fill="#0F135A"></path>
                <polygon id="Fill-9" fill="#0F135A" points="89.1790007 32.3376013 87.4747445 32.3376013 87.4747445 31.3538118 91.9531892 31.3538118 91.9531892 32.3376013 90.2499119 32.3376013 90.2499119 37.3965308 89.1790007 37.3965308"></polygon>
                <path d="M97.9876855,34.3925956 L97.9876855,34.3749755 C97.9876855,33.7798074 97.7997377,33.2707819 97.4160108,32.8557305 C97.0313051,32.4328478 96.5447942,32.2253221 95.9554994,32.2253221 C95.3662046,32.2253221 94.8885039,32.4328478 94.5037981,32.8469204 C94.1279024,33.2531618 93.9409335,33.7621872 93.9409335,34.3573554 L93.9409335,34.3749755 C93.9409335,34.9711226 94.1279024,35.480148 94.5126082,35.8854105 C94.8973139,36.3092721 95.3838247,36.5158189 95.9731195,36.5158189 C96.5614355,36.5158189 97.0401151,36.3092721 97.4248209,35.8942206 C97.7997377,35.4889581 97.9876855,34.9877638 97.9876855,34.3925956 M92.8396766,34.3925956 L92.8396766,34.3749755 C92.8396766,33.5115901 93.1294295,32.7783977 93.7187243,32.1734406 C94.3158503,31.5606523 95.0676416,31.2503426 95.9731195,31.2503426 C96.8776185,31.2503426 97.6294099,31.5518423 98.2187047,32.1656095 C98.7991895,32.7607776 99.0889424,33.49397 99.0889424,34.3573554 L99.0889424,34.3749755 C99.0889424,35.2383609 98.7991895,35.9725322 98.2098947,36.5765104 C97.6117898,37.1892987 96.8609773,37.5005873 95.9554994,37.5005873 C95.0510004,37.5005873 94.2992091,37.1981088 93.7099142,36.5853205 C93.1294295,35.9891734 92.8396766,35.255981 92.8396766,34.3925956" id="Fill-11" fill="#0F135A"></path>
                <polygon id="Fill-13" fill="#0F135A" points="73.6514742 31.2500489 74.8829242 31.2500489 76.7947061 36.0202044 78.6966992 31.2500489 79.9017189 31.2500489 77.2743647 37.5002937 76.2876385 37.5002937"></polygon>
                <polygon id="Fill-15" fill="#0F135A" points="86.3170054 37.5000979 85.0845765 37.5000979 83.1737734 32.7309213 81.2708015 37.5000979 80.0667606 37.5000979 82.693136 31.2498532 83.6808411 31.2498532"></polygon>
                <path d="M104.588473,35.1202083 C105.548769,34.843181 106.02549,34.2284349 106.02549,33.2847801 L106.02549,33.26716 C106.02549,32.7385567 105.861036,32.3058851 105.523317,31.9593563 C105.108266,31.5531148 104.527781,31.3534203 103.775011,31.3534203 L100.807001,31.3534203 L100.807001,37.4147382 L101.872039,37.4147382 L101.872039,32.3235052 L103.687889,32.3235052 C104.527781,32.3235052 104.943811,32.661224 104.943811,33.3278515 L104.943811,33.3454716 C104.943811,33.6479502 104.83026,33.8995262 104.605114,34.0806218 C104.380947,34.2626963 104.077489,34.3576491 103.696699,34.3576491 L103.471553,34.3576491 L103.471553,35.3022828 L104.960453,37.4147382 L106.225185,37.4147382 L104.588473,35.1202083 Z" id="Fill-17" fill="#0F135A"></path>
                <polygon id="Fill-19" fill="#0F135A" points="71.9030698 32.4009358 71.9030698 31.4964368 68.777458 31.4964368 67.7359137 31.4964368 67.7359137 37.2542973 68.777458 37.2542973 71.9030698 37.2542973 71.9030698 36.3488195 68.777458 36.3488195 68.777458 34.8021653 71.9030698 34.8021653 71.9030698 33.8976663 68.777458 33.8976663 68.777458 32.4009358"></polygon>
                <polygon id="Fill-21" fill="#0F135A" points="62.4745487 31.353616 63.5366498 31.353616 63.5366498 36.4301656 66.6417048 36.4301656 66.6417048 37.396335 62.4745487 37.396335"></polygon>
                <polygon id="Fill-23" fill="#0F135A" points="60.3913622 32.4009358 60.3913622 31.4964368 57.2667293 31.4964368 56.2242061 31.4964368 56.2242061 37.2542973 57.2667293 37.2542973 60.3913622 37.2542973 60.3913622 36.3488195 57.2667293 36.3488195 57.2667293 34.8021653 60.3913622 34.8021653 60.3913622 33.8976663 57.2667293 33.8976663 57.2667293 32.4009358"></polygon>
                <path d="M67.476115,12.513313 L68.7242061,12.513313 L68.7242061,25.0000979 L66.2270449,25.0000979 L66.2270449,13.762383 C66.2270449,13.1593837 66.7292181,12.513313 67.476115,12.513313" id="Fill-25" fill="#0F135A"></path>
                <g id="Group-29" transform="translate(151.228611, 12.513313)">
                    <mask id="mask-2" fill="white">
                        <use xlink:href="#path-1"></use>
                    </mask>
                    <g id="Clip-28"></g>
                    <path d="M1.24809115,0 L2.4971612,0 L2.4971612,12.4867849 L0,12.4867849 L0,1.24907005 C0,0.646070715 0.501194252,0 1.24809115,0" id="Fill-27" fill="#0F135A" mask="url(#mask-2)"></path>
                </g>
                <path d="M62.4745487,12.5265281 L62.4745487,18.756216 C62.4745487,20.1413524 61.7178629,21.3502878 60.5989859,22.0002741 C59.47913,21.3502878 58.7224441,20.1413524 58.7224441,18.756216 C58.7224441,18.4664631 58.7244019,12.5089079 58.7244019,12.5089079 L56.224304,12.5000979 L56.224304,18.8061396 C56.234093,20.0649986 56.615862,21.2347782 57.2658483,22.2117154 C58.0489643,23.390305 59.2207017,24.2879518 60.5989859,24.7206234 C61.9762912,24.2879518 63.1480285,23.390305 63.9311445,22.2117154 C64.5811308,21.2347782 64.9628999,20.0649986 64.9726888,18.8061396 L64.9726888,12.5265281 L62.4745487,12.5265281 Z" id="Fill-30" fill="#0F135A"></path>
                <path d="M85.5990838,13.7619915 C85.5990838,13.0150946 84.953013,12.5129214 84.3500137,12.5129214 L82.4734719,12.5129214 L81.2253808,12.5129214 L78.1164102,12.5129214 L78.1164102,15.0110615 L79.9763107,15.0110615 L79.9763107,24.9997063 L82.4734719,24.9997063 L82.4734719,15.0110615 L85.5990838,15.0110615 L85.5990838,13.7619915 Z" id="Fill-32" fill="#0F135A"></path>
                <path d="M73.0270371,15.0128235 L77.4614315,15.0128235 L77.4614315,12.5137045 L72.9555777,12.5137045 C71.2914562,12.5832061 69.9621168,13.9497435 69.9621168,15.6314852 L69.9621168,17.1634559 L69.9621168,19.6635538 L69.9621168,21.8748776 C69.9621168,23.5566193 71.2914562,24.9241356 72.9555777,24.9936372 L77.4614315,24.9936372 L77.4614315,22.4935393 L73.0270371,22.4935393 C72.7079173,22.4641724 72.4612358,22.1988919 72.4612358,21.8748776 L72.4612358,19.6635538 L76.2104037,19.6635538 L76.2104037,17.1634559 L72.4612358,17.1634559 L72.4612358,15.6314852 C72.4612358,15.3084498 72.7079173,15.0421904 73.0270371,15.0128235" id="Fill-34" fill="#0F135A"></path>
                <path d="M94.9719057,21.8718431 C94.9719057,22.1948784 94.7262031,22.4611379 94.4061044,22.4905047 L91.2237167,22.4905047 L91.2237167,15.009789 L94.4061044,15.009789 C94.7262031,15.0391558 94.9719057,15.3054152 94.9719057,15.6284506 L94.9719057,21.8718431 Z M94.4775637,12.51067 L88.7245977,12.4999021 L88.7245977,25.0003916 L94.4775637,24.9896237 C96.1426642,24.9201222 97.4710247,23.5535847 97.4710247,21.8718431 L97.4710247,15.6284506 C97.4710247,13.946709 96.1426642,12.5791926 94.4775637,12.51067 L94.4775637,12.51067 Z" id="Fill-36" fill="#0F135A"></path>
                <path d="M125.975273,17.6599514 L125.975273,17.6599514 L125.975273,17.5003916 L122.226105,17.5003916 L122.226105,19.9995106 L123.476154,19.9995106 L123.476154,21.8721367 C123.476154,22.1951721 123.229473,22.4614315 122.910353,22.4907984 L122.441462,22.4907984 L120.789087,22.4907984 C120.469968,22.4614315 120.223286,22.1951721 120.223286,21.8721367 L120.223286,15.6287443 C120.223286,15.30473 120.469968,15.0394495 120.789087,15.0091037 L122.441462,15.0091037 L123.476154,15.0091037 L125.975273,15.0091037 L125.975273,12.5001958 L120.717628,12.5099847 C119.053506,12.5794863 117.724167,13.9470026 117.724167,15.6287443 L117.724167,21.8721367 C117.724167,23.5528995 119.053506,24.9204158 120.717628,24.9899174 L122.998453,24.9997063 L122.998453,24.9889385 C124.577411,24.9135636 125.848017,23.6713458 125.964505,22.1041349 L125.975273,22.1041349 L125.975273,17.6599514 Z" id="Fill-38" fill="#0F135A"></path>
                <path d="M104.972199,21.8717452 C104.972199,22.1947805 104.726497,22.46104 104.406398,22.4904068 L101.792748,22.4904068 C101.47265,22.46104 101.226947,22.1947805 101.226947,21.8717452 L101.226947,15.6283527 C101.226947,15.3053174 101.47265,15.0390579 101.792748,15.0096911 L101.830925,15.0096911 L104.3692,15.0096911 L104.406398,15.0096911 C104.726497,15.0390579 104.972199,15.3053174 104.972199,15.6283527 L104.972199,21.8717452 Z M104.477857,12.5105721 L101.721289,12.5105721 C100.057167,12.5790947 98.727828,13.9466111 98.727828,15.6283527 L98.727828,21.8717452 C98.727828,23.5534868 100.057167,24.9210032 101.721289,24.9905047 L104.477857,24.9905047 C106.142958,24.9210032 107.471318,23.5534868 107.471318,21.8717452 L107.471318,15.6283527 C107.471318,13.9466111 106.142958,12.5790947 104.477857,12.5105721 L104.477857,12.5105721 Z" id="Fill-40" fill="#0F135A"></path>
                <path d="M113.606053,12.5099847 L108.350366,12.5001958 L108.350366,25.0006852 L110.847527,25.0006852 L110.847527,15.0091037 L113.534594,15.0091037 C113.853714,15.0394495 114.100395,15.30473 114.100395,15.6287443 L114.100395,25.0545245 L116.599514,25.0545245 L116.599514,15.6287443 C116.599514,13.9470026 115.270175,12.5794863 113.606053,12.5099847" id="Fill-42" fill="#0F135A"></path>
                <path d="M131.224793,13.7621872 L131.224793,24.9999021 L133.721955,24.9999021 L133.721955,12.5131172 L132.473864,12.5131172 C131.726967,12.5131172 131.224793,13.1591879 131.224793,13.7621872" id="Fill-44" fill="#0F135A"></path>
                <path d="M138.723423,12.513313 C137.976526,12.513313 137.475332,13.1593837 137.475332,13.762383 L137.475332,17.5007831 L134.972297,17.5007831 L134.972297,19.9999021 L137.475332,19.9999021 L137.475332,25.0000979 L139.972493,25.0000979 L139.972493,19.9999021 L139.972493,17.5007831 L139.972493,12.513313 L138.723423,12.513313 Z" id="Fill-46" fill="#0F135A"></path>
                <path d="M144.483241,12.5099847 C142.81912,12.5794863 141.48978,13.9470026 141.48978,15.6287443 L141.48978,25.0545245 L143.988899,25.0545245 L143.988899,15.6287443 C143.988899,15.30473 144.235581,15.0394495 144.554701,15.0091037 L147.477681,15.0091037 L147.477681,17.5003916 L145.269294,17.5003916 L145.269294,19.9995106 L147.477681,19.9995106 L147.477681,25.0006852 L149.974842,25.0006852 L149.974842,12.5001958 L144.483241,12.5099847 Z" id="Fill-48" fill="#0F135A"></path>
            </g>
        </g>
    </g>
</svg>