<svg id="Layer_1" data-name="Layer 1" xmlns="http://www.w3.org/2000/svg" viewBox="0 0 362.47 69.68"><defs><style>.cls-1{fill:#C9D1E9;stroke:#d3d3d3;fill-rule:evenodd;}</style></defs><g id="Page-1"><g id="homepage"><g id="pexels-scott-webb-1029618"><g id="Mask"><path id="path-1" class="cls-1" d="M423.64,68l-70.38,1.14a49,49,0,0,1-30.56-10.7L263.46,11.2A49,49,0,0,0,232.89.5H118.8A49,49,0,0,0,87.73,11.61L31.07,58.07A49,49,0,0,1,0,69.18H-.36C-27.5,69.8-100.47,66.44-101,70c-.63,4.21,99.4,34.62,226.65,42,182.07,10.51,328.52-31.46,328-35.84-.09-.81-5.3-.74-20.34-5.07C430.91,70.35,427.59,69.35,423.64,68Z"/></g></g></g></g></svg>