<svg id="Layer_1" data-name="Layer 1" xmlns="http://www.w3.org/2000/svg" viewBox="0 0 226.37 43.87"><defs><style>.cls-1{fill:#f4f5f6;stroke:#bbb;}</style></defs><g id="Page-1"><g id="homepage"><path id="Stroke-1" class="cls-1" d="M-197.57-70.79c30.26-9,422.45-123.11,484.7-7.88,10.34,19.13,17,54.62-18.32,121.76C265,19.7,246.72.66,225.56.61A53.45,53.45,0,0,0,184,20.29l-1.27,1.57a57.76,57.76,0,0,1-44.87,21.26H89.42A57.76,57.76,0,0,1,44.55,21.86,57.71,57.71,0,0,0-.31.61H-147.94c-17.53,15.59-28.14,13.14-30.58,12.44C-195.34,8.16-205.85-25.19-197.57-70.79Z"/></g></g></svg>