<?xml version="1.0" encoding="UTF-8"?>
<svg width="45px" height="50px" viewBox="0 0 45 50" version="1.1" xmlns="http://www.w3.org/2000/svg" xmlns:xlink="http://www.w3.org/1999/xlink">
    <title>Group 8</title>
    <defs>
        <polygon id="path-1" points="0 0 44.5454545 0 44.5454545 50 0 50"></polygon>
    </defs>
    <g id="Page-1" stroke="none" stroke-width="1" fill="none" fill-rule="evenodd">
        <g id="homepage" transform="translate(-804.000000, -968.000000)">
            <g id="Group-8" transform="translate(804.000000, 968.000000)">
                <g id="Group-3">
                    <mask id="mask-2" fill="white">
                        <use xlink:href="#path-1"></use>
                    </mask>
                    <g id="Clip-2"></g>
                    <path d="M38.5980219,15.7487844 C38.5980219,13.943304 38.5837425,12.5258461 38.6081676,11.1089761 C38.6140861,10.7492714 38.4975705,10.6142474 38.1553617,10.5186136 C32.9845477,9.07234797 27.817601,7.61285428 22.6512493,6.15140089 C22.4051287,6.08173321 22.1769564,6.06909309 21.9284559,6.13944666 C16.7307689,7.61099256 11.5325861,9.08097069 6.33073434,10.5382107 C6.01529931,10.6264956 5.936862,10.7624015 5.93928464,11.0730154 C5.95520701,13.0439933 5.94806733,15.0151672 5.94727403,16.986243 C5.94568744,21.5437436 6.88048969,25.8937108 8.88941712,30.008513 C11.7697822,35.9080226 16.1879549,40.3359863 22.0081823,43.4296818 C22.209085,43.536486 22.3574316,43.5347222 22.5480214,43.421745 C23.3376502,42.9538643 24.1541519,42.5278235 24.9264273,42.0340746 C28.7635094,39.5809102 31.8862269,36.4327348 34.2589806,32.5687755 C36.0839621,29.596876 37.3347943,26.4042152 38.0233768,22.9927528 C38.5325748,20.4702147 38.6423474,17.9219064 38.5980219,15.7487844 L38.5980219,15.7487844 Z M22.1737832,50 C20.8555206,49.3466328 19.502948,48.7656769 18.2167148,48.043328 C14.3196395,45.8546264 10.9416784,43.0668416 8.10365569,39.6380358 C4.53143584,35.3221674 2.13200758,30.4390612 0.887620872,25.0063544 C0.31158753,22.4910672 0.0144975167,19.9380555 0.0128117589,17.3557463 C0.0103327034,13.7877031 0.0187614922,10.2197579 -1.73007886e-07,6.65181272 C-0.00186424975,6.29514558 0.129228206,6.1924568 0.437126902,6.10573966 C7.56619645,4.09938902 14.6929853,2.08529753 21.8183858,0.0662087871 C22.1298543,-0.0220761281 22.4155407,-0.0221741135 22.7270092,0.0661108016 C29.8523106,2.08519955 36.9790994,4.09938902 44.108169,6.10573966 C44.4159685,6.19235882 44.5473585,6.29494961 44.5454943,6.65171474 C44.5268319,10.1707652 44.5462677,13.6899136 44.5314925,17.208964 C44.5017438,24.2726391 42.5600484,30.7875955 38.6408599,36.6935722 C35.564947,41.3287752 31.5710894,45.0325282 26.714223,47.8253103 C25.3074086,48.6342784 23.8309822,49.298424 22.3716118,50 L22.1737832,50 Z" id="Fill-1" fill="#0F135A" mask="url(#mask-2)"></path>
                </g>
                <path d="M20.9090909,39.0909091 C16.4158288,36.0811768 13.1406394,32.2070758 11.0855003,27.3764065 C9.76033458,24.2614133 9.11530392,21.0086014 9.09493349,17.6394838 C9.08692375,16.2985596 9.09443906,14.9576354 9.09107695,13.6166152 C9.09058252,13.4208837 9.08000176,13.2676983 9.34847613,13.1941309 C13.1943343,12.1395049 17.0365337,11.0722975 20.9090909,10 L20.9090909,39.0909091 Z" id="Fill-4" fill="#0F135A"></path>
                <path d="M23.6363636,39.0790482 L23.6363636,10 C25.8856833,10.62418 28.1200786,11.2440281 30.3542763,11.8643575 C31.9293338,12.3015915 33.5040948,12.7394994 35.0790534,13.1767335 C35.2818658,13.2330483 35.4615504,13.2592323 35.4543354,13.5618884 C35.4000742,15.8635762 35.5371603,18.1678631 35.2719821,20.4668555 C34.884741,23.824374 33.8709756,26.9866678 32.2192211,29.9514265 C30.1791382,33.6133338 27.3819681,36.6202565 23.8689258,38.9957793 C23.8080425,39.0368843 23.7602057,39.1221747 23.6363636,39.0790482" id="Fill-6" fill="#0F135A"></path>
            </g>
        </g>
    </g>
</svg>