<?xml version="1.0" encoding="UTF-8"?>
<svg width="53px" height="53px" viewBox="0 0 53 53" version="1.1" xmlns="http://www.w3.org/2000/svg" xmlns:xlink="http://www.w3.org/1999/xlink">
    <title>Group 23</title>
    <defs>
        <polygon id="path-1" points="0 0 21.3709677 0 21.3709677 21.3709677 0 21.3709677"></polygon>
        <polygon id="path-3" points="0 0 21.3709677 0 21.3709677 21.3709677 0 21.3709677"></polygon>
        <polygon id="path-5" points="0 0 21.3709677 0 21.3709677 21.3709677 0 21.3709677"></polygon>
        <polygon id="path-7" points="0 0 21.3709677 0 21.3709677 21.3709677 0 21.3709677"></polygon>
    </defs>
    <g id="Page-1" stroke="none" stroke-width="1" fill="none" fill-rule="evenodd">
        <g id="homepage" transform="translate(-1191.000000, -967.000000)">
            <g id="Group-23" transform="translate(1191.000000, 967.000000)">
                <path d="M34.5683552,18.4316448 C32.0003261,18.1161818 29.2856467,17.9516129 26.4997642,17.9516129 C23.7143533,17.9516129 20.9996739,18.1161818 18.4316448,18.4316448 C18.1157102,20.9996739 17.9516129,23.7143533 17.9516129,26.5002358 C17.9516129,29.2861183 18.1157102,32.0003261 18.4311732,34.5688268 C20.9996739,34.8842898 23.7143533,35.0483871 26.4997642,35.0483871 C29.2856467,35.0483871 32.0003261,34.8842898 34.5683552,34.5688268 C34.8838182,32.0003261 35.0483871,29.2856467 35.0483871,26.5002358 C35.0483871,23.7143533 34.8838182,20.9996739 34.5683552,18.4316448" id="Fill-1" fill="#0F135A"></path>
                <path d="M34.1935484,38.4677419 C31.7171528,38.7302735 29.1344326,38.8663126 26.5,38.8663126 C23.8655674,38.8663126 21.2828472,38.7302735 18.8064516,38.4677419 C19.2897451,40.9689521 19.9301089,43.274457 20.7144941,45.3007237 C22.3746071,49.5866715 24.5373453,52.1451613 26.5,52.1451613 C28.4626547,52.1451613 30.6253929,49.5866715 32.2855059,45.3007237 C33.0698911,43.274457 33.7102549,40.9689521 34.1935484,38.4677419" id="Fill-3" fill="#0F135A"></path>
                <g id="Group-7" transform="translate(31.629032, 0.000000)">
                    <mask id="mask-2" fill="white">
                        <use xlink:href="#path-1"></use>
                    </mask>
                    <g id="Clip-6"></g>
                    <path d="M0.478192319,0.495161974 C1.8328382,1.99296305 3.03180436,4.09165049 4.04209601,6.73266927 C4.98546861,9.19802288 5.72761937,12.0398018 6.2481008,15.1227718 C9.33148859,15.6437259 12.1732243,16.385888 14.6385404,17.3288102 C17.2795189,18.3391172 19.3781744,19.5385664 20.8759527,20.8932329 C21.0381385,21.0400852 21.2045066,21.1994851 21.3713395,21.3709677 C19.4055927,10.5206235 10.8501791,1.96507969 0,-0.000232361321 C0.171480044,0.166603067 0.3313422,0.332973772 0.478192319,0.495161974" id="Fill-5" fill="#0F135A" mask="url(#mask-2)"></path>
                </g>
                <path d="M8.55435352,20.7144941 C4.26855528,22.3746071 1.70967742,24.5373453 1.70967742,26.5 C1.70967742,28.4626547 4.26855528,30.6253929 8.55435352,32.2850226 C10.5805495,33.0698911 12.8859738,33.7102549 15.3870968,34.1935484 C15.124097,31.7171528 14.9880627,29.1344326 14.9880627,26.5 C14.9880627,23.8655674 15.124097,21.2828472 15.3870968,18.8064516 C12.8859738,19.2892618 10.5800722,19.9296256 8.55435352,20.7144941" id="Fill-8" fill="#0F135A"></path>
                <path d="M45.3004852,32.2855059 C49.5862834,30.6253929 52.1451613,28.4626547 52.1451613,26.5 C52.1451613,24.5378286 49.5862834,22.3746071 45.3004852,20.7149774 C43.2747665,19.9301089 40.9688649,19.2897451 38.4677419,18.8064516 C38.7307417,21.2828472 38.8667761,23.8655674 38.8667761,26.5 C38.8667761,29.1344326 38.7307417,31.7171528 38.4677419,34.1935484 C40.9688649,33.7107382 43.2747665,33.0703744 45.3004852,32.2855059" id="Fill-10" fill="#0F135A"></path>
                <path d="M18.8064516,15.3870968 C21.2828472,15.1245652 23.8655674,14.9885261 26.5,14.9885261 C29.1344326,14.9885261 31.7171528,15.1245652 34.1935484,15.3870968 C33.7102549,12.8858866 33.0698911,10.5803817 32.2855059,8.55459239 C30.6253929,4.26816725 28.4626547,1.70967742 26.5,1.70967742 C24.5373453,1.70967742 22.3746071,4.26816725 20.7144941,8.55459239 C19.9296256,10.5803817 19.2897451,12.8858866 18.8064516,15.3870968" id="Fill-12" fill="#0F135A"></path>
                <g id="Group-16" transform="translate(0.000000, 31.629032)">
                    <mask id="mask-4" fill="white">
                        <use xlink:href="#path-3"></use>
                    </mask>
                    <g id="Clip-15"></g>
                    <path d="M20.8927806,20.8755788 C19.5381495,19.377794 18.3391963,17.2791294 17.3289157,14.6381393 C16.3855533,12.1728125 15.6434106,9.33106446 15.1229349,6.24812798 C12.0395806,5.72717956 9.19787581,4.98502557 6.73258653,4.04211358 C4.09163667,3.03181755 1.99300398,1.83238145 0.495241996,0.477729681 C0.333058026,0.330878923 0.166691662,0.17148079 -0.000139413154,0 C1.96558606,10.8502263 10.5209066,19.4056771 21.3709677,21.3709677 C21.1994896,21.2041341 21.0396291,21.0377652 20.8927806,20.8755788" id="Fill-14" fill="#0F135A" mask="url(#mask-4)"></path>
                </g>
                <g id="Group-19" transform="translate(31.629032, 31.629032)">
                    <mask id="mask-6" fill="white">
                        <use xlink:href="#path-5"></use>
                    </mask>
                    <g id="Clip-18"></g>
                    <path d="M20.8758165,0.47818712 C19.378048,1.83281827 17.2794062,3.0317714 14.6384449,4.04205206 C12.1731449,4.9854144 9.33142772,5.7275571 6.24852476,6.24803287 C5.727582,9.33138714 4.98543608,12.1730919 4.04253435,14.6383812 C3.0322493,17.2793311 1.83282624,19.3779638 0.478189199,20.8757257 C0.331340038,21.0379097 0.171943638,21.2042761 0,21.3711072 C10.8501083,19.4053817 19.4054661,10.8500611 21.3712001,0 C21.2043683,0.17147818 21.0380012,0.331338597 20.8758165,0.47818712" id="Fill-17" fill="#0F135A" mask="url(#mask-6)"></path>
                </g>
                <g id="Group-22">
                    <mask id="mask-8" fill="white">
                        <use xlink:href="#path-7"></use>
                    </mask>
                    <g id="Clip-21"></g>
                    <path d="M0.49528739,20.8927754 C1.99304612,19.5381295 4.09167424,18.3391634 6.73261836,17.3288717 C9.19790228,16.3854991 12.0396009,15.6433484 15.1229485,15.1228669 C15.6434231,12.0394791 16.3855642,9.19774345 17.3289245,6.73242737 C18.3387382,4.0914488 19.5381535,1.9927933 20.8927817,0.495015022 C21.0396299,0.332829289 21.1994899,0.166461116 21.3709677,-0.000371772454 C10.5209302,1.96537508 1.96562826,10.5207887 -9.29419009e-05,21.3709677 C0.16673777,21.1994877 0.333103773,21.0396255 0.49528739,20.8927754" id="Fill-20" fill="#0F135A" mask="url(#mask-8)"></path>
                </g>
            </g>
        </g>
    </g>
</svg>