<?xml version="1.0" encoding="UTF-8"?>
<svg width="53px" height="53px" viewBox="0 0 53 53" version="1.1" xmlns="http://www.w3.org/2000/svg" xmlns:xlink="http://www.w3.org/1999/xlink">
    <title>Group 6</title>
    <defs>
        <polygon id="path-1" points="0 0 53 0 53 53 0 53"></polygon>
    </defs>
    <g id="Page-1" stroke="none" stroke-width="1" fill="none" fill-rule="evenodd">
        <g id="homepage" transform="translate(-410.000000, -1208.000000)">
            <g id="Group-6" transform="translate(410.000000, 1208.000000)">
                <g id="Group-3">
                    <mask id="mask-2" fill="white">
                        <use xlink:href="#path-1"></use>
                    </mask>
                    <g id="Clip-2"></g>
                    <path d="M43.3878333,26.4923295 C43.4310464,17.238232 35.9121038,9.65822361 26.6332672,9.60170121 C17.2742841,9.54521768 9.67459025,17.0209827 9.61455605,26.343065 C9.55421942,35.7103195 17.0663571,43.3073997 26.4268524,43.3457677 C35.7955135,43.3838449 43.3434902,35.8836054 43.3878333,26.4923295 M46.3811902,10.4272078 C46.3368829,11.0158055 46.3021024,11.5608929 46.2534096,12.1046206 C46.1768925,12.9591146 46.4879513,13.4393898 47.3167861,13.7241708 C47.8319914,13.9012335 48.3518845,14.0656058 48.8617971,14.2564166 C50.9047743,15.0207173 51.86638,17.2509225 51.0042768,19.2502814 C50.7742718,19.7837358 50.4780325,20.2883345 50.2208079,20.8104581 C49.8649881,21.5330615 49.9705394,22.0840409 50.5693692,22.6335096 C50.9997403,23.028426 51.4543065,23.3981125 51.8695556,23.8079856 C53.3867422,25.3057673 53.3747958,27.6745105 51.8455117,29.163983 C51.4139308,29.5844315 50.9498378,29.9714919 50.5097886,30.3836312 C49.9850565,30.8747839 49.8776906,31.4234972 50.1839103,32.0699575 C50.4409837,32.6127788 50.7378278,33.1376218 50.980989,33.6864862 C51.8506531,35.6495864 50.9366817,37.8846261 48.9366508,38.6759697 C48.3784991,38.8966938 47.7950938,39.053059 47.226508,39.2481 C46.5095757,39.493903 46.191712,40.0072641 46.2399511,40.7618959 C46.2900048,41.5485561 46.4442488,42.3306841 46.3282634,43.1255025 C46.0435168,45.0759122 44.2874032,46.4825943 42.3221528,46.3242651 C41.8149622,46.2833231 41.308074,46.2389064 40.8010346,46.1969068 C40.0537071,46.1352672 39.5416775,46.4632564 39.2861163,47.1835936 C39.0916478,47.7318536 38.9304477,48.2921998 38.7238817,48.8356254 C37.949486,50.8727536 35.7105281,51.8148725 33.7111021,50.9431557 C33.247009,50.740863 32.8033306,50.4912831 32.3516376,50.26089 C31.3951734,49.7730609 30.8932754,49.8773043 30.1879871,50.7120072 C29.9082308,51.0428668 29.6355818,51.3802227 29.3453913,51.7017155 C27.7997754,53.4140272 25.3324759,53.435027 23.7608503,51.7500603 C23.3623865,51.3229644 22.9831277,50.8780413 22.5822444,50.4535137 C22.0885123,49.9306347 21.5385265,49.8289596 20.8928187,50.1377619 C20.3674817,50.3890036 19.860291,50.6796766 19.3278467,50.9139977 C17.2827524,51.8142682 15.027614,50.8606674 14.2424817,48.7676405 C14.0514913,48.2582074 13.9028424,47.7330622 13.7257642,47.2183414 C13.4556859,46.4328898 12.9660368,46.1449362 12.1279776,46.2015902 C11.3785331,46.2522012 10.6324154,46.3916456 9.87420016,46.2852871 C7.8973059,46.0082111 6.4676755,44.2357706 6.63613417,42.256505 C6.67923176,41.7499424 6.72399277,41.2435308 6.76179768,40.736666 C6.81532943,40.0184438 6.48854381,39.5032698 5.80094814,39.2536898 C5.25413794,39.055023 4.69281067,38.8957874 4.14766389,38.6928904 C2.07716468,37.9222443 1.12508587,35.6699819 2.02181829,33.6543067 C2.2506136,33.1401901 2.53142846,32.6494906 2.77988231,32.1438344 C3.13676065,31.4176052 3.03604837,30.8714602 2.43903326,30.3180636 C2.02454025,29.9338736 1.58675941,29.5741582 1.1799786,29.1822634 C-0.398905586,27.6606114 -0.392100702,25.2713217 1.19313471,23.7490654 C1.58721307,23.3707675 2.00397438,23.0161887 2.40606738,22.6463511 C3.05510204,22.0492931 3.14492651,21.536083 2.74419448,20.7338618 C2.51751625,20.2801763 2.27102825,19.8357064 2.06083296,19.3747692 C1.11495416,17.3007781 2.08049151,14.994732 4.22342493,14.208525 C4.69901067,14.0340306 5.18881106,13.8985141 5.66878218,13.7353505 C6.53466579,13.4409006 6.8120026,12.9739202 6.75166597,12.0734986 C6.70161227,11.325061 6.56143167,10.5802492 6.67469517,9.82199155 C6.96488565,7.88109968 8.73264315,6.46429544 10.6876106,6.62458861 C11.1948012,6.6661349 11.7015382,6.71115598 12.2087289,6.75209797 C12.9282319,6.8101117 13.4606762,6.48453982 13.7053496,5.81179198 C13.9040522,5.26504272 14.0622279,4.70348788 14.2645598,4.1582494 C15.0424335,2.06189884 17.3034695,1.11645621 19.3485638,2.03410059 C19.8280813,2.24923486 20.2893011,2.50485789 20.7598966,2.74008546 C21.5717949,3.14587947 22.1009123,3.0439022 22.7163762,2.36344941 C23.0829326,1.95825971 23.4345183,1.53856658 23.8158942,1.14788032 C25.3035929,-0.376944282 27.6822778,-0.383742767 29.1772351,1.13428335 C29.5998939,1.56349436 29.9856552,2.02896395 30.3975775,2.46905254 C30.9135389,3.02033412 31.4574759,3.12548401 32.1304033,2.80051644 C32.5872378,2.57994338 33.030765,2.33232745 33.4859361,2.10843069 C35.6149573,1.06116187 37.9695982,2.01234543 38.7786232,4.24798939 C38.9510136,4.72433656 39.0984527,5.20944622 39.2635846,5.68851279 C39.5505994,6.52079841 40.0216486,6.8021046 40.8885907,6.74575271 C41.656484,6.69589716 42.4201432,6.54814342 43.1981682,6.66779675 C45.0557502,6.95393743 46.4318488,8.5881421 46.3811902,10.4272078" id="Fill-1" fill="#0F135A" mask="url(#mask-2)"></path>
                </g>
                <path d="M24.3149395,31.7936766 C24.6451451,31.8130532 24.9038833,31.6256597 25.1446224,31.3889795 C27.8839391,28.6953768 30.6253733,26.0037248 33.3656165,23.3110324 C33.4354957,23.2423691 33.5077571,23.1735758 33.5637398,23.094509 C33.8338599,22.7132198 33.8723729,22.3115137 33.6164139,21.9135789 C33.3469556,21.4945769 32.9394594,21.367784 32.4582459,21.4607655 C32.1680091,21.5168145 31.9769002,21.7268356 31.7787768,21.9219017 C29.3787976,24.2844122 26.974848,26.6430214 24.5837361,29.0141148 C24.3435264,29.2522255 24.2158116,29.2608084 23.9740138,29.0159354 C22.9521632,27.9809147 21.9128428,26.9622796 20.8684931,25.9491063 C20.3586928,25.4545487 19.7299125,25.4450555 19.2895943,25.8931873 C18.8639666,26.3264942 18.8777307,26.9291183 19.3621204,27.4100213 C20.7190735,28.757798 22.0883348,30.0937406 23.4523022,31.434625 C23.6823212,31.6607716 23.9446328,31.8135734 24.3149395,31.7936766 M38.9705832,26.6325865 C38.9767539,33.5367048 33.3215886,39.1967336 26.4157642,39.1979164 C19.4368818,39.1992302 13.8020833,33.5681092 13.8020833,26.5926411 C13.8020833,19.6815586 19.4530439,14.0266544 26.3566345,14.0294128 C33.3418241,14.0321732 38.9641396,19.64976 38.9705832,26.6325865" id="Fill-4" fill="#0F135A"></path>
            </g>
        </g>
    </g>
</svg>