<?xml version="1.0" encoding="UTF-8"?>
<svg width="48px" height="48px" viewBox="0 0 48 48" version="1.1" xmlns="http://www.w3.org/2000/svg" xmlns:xlink="http://www.w3.org/1999/xlink">
    <title>Group 10</title>
    <defs>
        <polygon id="path-1" points="0 0 21.2307692 0 21.2307692 26.7692308 0 26.7692308"></polygon>
        <polygon id="path-3" points="0 0 21.2307692 0 21.2307692 26.7692308 0 26.7692308"></polygon>
        <polygon id="path-5" points="0 0 20.3076923 0 20.3076923 30.4615385 0 30.4615385"></polygon>
    </defs>
    <g id="Page-1" stroke="none" stroke-width="1" fill="none" fill-rule="evenodd">
        <g id="homepage" transform="translate(-803.000000, -1211.000000)">
            <g id="Group-10" transform="translate(803.000000, 1211.000000)">
                <g id="Group-3" transform="translate(0.000000, 21.230769)">
                    <mask id="mask-2" fill="white">
                        <use xlink:href="#path-1"></use>
                    </mask>
                    <g id="Clip-2"></g>
                    <path d="M0,9.03626395 C0.216185436,8.53910768 0.183944732,8.000599 0.264450538,7.48230293 C0.650763262,4.99503811 1.34000427,2.59446504 2.37660048,0.286146811 C2.46977228,0.0786429472 2.5517174,-0.0265924798 2.81837489,0.00576625501 C6.68937039,0.475756017 10.3759414,1.51040106 13.75565,3.42494409 C16.3712731,4.90667744 18.5325517,6.83930056 19.8379164,9.54760613 C20.8286464,11.6033593 21.2155348,13.7820572 21.2303118,16.0357643 C21.2513258,19.2532795 20.5466362,22.3398763 19.4605274,25.3682459 C19.2471247,25.3032503 19.2159395,25.11531 19.1338984,24.9787357 C16.5497484,20.6781764 13.9659822,16.3774317 11.3994878,12.067137 C11.1772572,11.6939452 11.0255532,11.5549603 10.6041211,11.842202 C10.1000723,12.1858166 9.5488138,12.4703694 8.99745938,12.7413854 C8.6538464,12.9102257 8.66065917,13.057648 8.84268481,13.3592611 C11.4024624,17.6025204 13.9477508,21.8538462 16.4959179,26.1035958 C16.6134622,26.2996026 16.7245774,26.4992254 16.8484547,26.7141467 C16.5160684,26.8395021 16.2264778,26.7200807 15.9474421,26.6599992 C12.2061771,25.854925 8.66641643,24.5891329 5.59030782,22.3111336 C2.5013413,20.023677 0.67024202,17.022752 0.179530826,13.2746092 C0.147482031,13.0297398 0.180202507,12.7597437 0,12.5447296 L0,9.03626395 Z" id="Fill-1" fill="#0F135A" mask="url(#mask-2)"></path>
                </g>
                <g id="Group-6" transform="translate(26.769231, 21.230769)">
                    <mask id="mask-4" fill="white">
                        <use xlink:href="#path-3"></use>
                    </mask>
                    <g id="Clip-5"></g>
                    <path d="M4.34931809,26.7676062 C5.37109124,25.060752 6.3485146,23.4276164 7.32632194,21.7946665 C9.01449394,18.9750704 10.6967142,16.152132 12.3997655,13.3408919 C12.590508,13.0261489 12.5588296,12.8892032 12.2326378,12.7244969 C11.6556105,12.4331508 11.0871268,12.1213788 10.54053,11.7799894 C10.2267216,11.5839945 10.0911764,11.6276315 9.90456165,11.940889 C7.31883432,16.2823 4.71841972,20.6155407 2.12078898,24.9503598 C2.03535323,25.0928762 1.94271784,25.2314003 1.8130283,25.4351941 C1.33410813,24.2153096 0.996012954,23.0292205 0.704763447,21.8286476 C0.174869816,19.6434583 -0.0810534487,17.4321797 0.0227173874,15.1870129 C0.241394506,10.4574188 2.30365988,6.70863448 6.39920008,4.06265771 C9.93240026,1.78007451 13.8727162,0.589436026 18.0488924,0.0199275706 C18.599137,-0.055090824 18.8075426,0.0729418073 19.0086526,0.553876565 C20.4246781,3.94075282 21.2777877,7.43941391 21.2288301,11.1048238 C21.1898561,14.0185643 20.5203854,16.7757688 18.7534973,19.2054178 C17.3628145,21.1179226 15.5399612,22.5611911 13.4626246,23.7212837 C10.8083567,25.2035469 7.94203531,26.1290214 4.95466396,26.7322324 C4.87700383,26.7479231 4.79809575,26.7612927 4.71909169,26.7662135 C4.62463239,26.7720627 4.52940513,26.7676062 4.34931809,26.7676062" id="Fill-4" fill="#0F135A" mask="url(#mask-4)"></path>
                </g>
                <g id="Group-9" transform="translate(13.846154, 0.000000)">
                    <mask id="mask-6" fill="white">
                        <use xlink:href="#path-5"></use>
                    </mask>
                    <g id="Clip-8"></g>
                    <path d="M11.6075681,30.4615385 L11.6075681,29.4621116 C11.6075681,24.5360748 11.6029987,19.610038 11.616804,14.6840957 C11.6178735,14.3145224 11.5225,14.2109965 11.1454786,14.2284872 C10.4694066,14.2598759 9.78983459,14.257985 9.11366535,14.2287708 C8.76872668,14.2138328 8.6942557,14.3134824 8.69503347,14.6401327 C8.70669994,19.707324 8.7032,24.7745153 8.7032,29.8417066 C8.7032,30.0113189 8.7032,30.1809313 8.7032,30.4184263 C7.89617184,29.8308341 7.22330809,29.1876498 6.56211082,28.5390766 C4.62333771,26.6373198 2.9277133,24.5559291 1.69272008,22.1446736 C0.606960466,20.024898 -0.0451952886,17.7961128 0.00244280322,15.4142606 C0.0535808365,12.8509781 0.88345584,10.4966382 2.19068397,8.29555455 C4.1323737,5.02621587 6.77570447,2.37538539 9.87208322,0.129109569 C10.0583579,-0.00608864694 10.1793003,-0.0641387901 10.4038799,0.0998954093 C13.8918632,2.64738907 16.8361889,5.65427304 18.7693232,9.50260044 C20.6872911,13.3208628 20.8299138,17.1984989 19.0954983,21.1227453 C17.4536369,24.8374818 14.7860982,27.7705267 11.6075681,30.4615385" id="Fill-7" fill="#0F135A" mask="url(#mask-6)"></path>
                </g>
            </g>
        </g>
    </g>
</svg>