<?xml version="1.0" encoding="UTF-8"?>
<svg width="50px" height="50px" viewBox="0 0 50 50" version="1.1" xmlns="http://www.w3.org/2000/svg" xmlns:xlink="http://www.w3.org/1999/xlink">
    <title>Group 3</title>
    <defs>
        <polygon id="path-1" points="0 0 50 0 50 50 0 50"></polygon>
    </defs>
    <g id="Page-1" stroke="none" stroke-width="1" fill="none" fill-rule="evenodd">
        <g id="homepage" transform="translate(-1192.000000, -1210.000000)">
            <g id="Group-3" transform="translate(1192.000000, 1210.000000)">
                <mask id="mask-2" fill="white">
                    <use xlink:href="#path-1"></use>
                </mask>
                <g id="Clip-2"></g>
                <path d="M29.2339152,35.2616191 C28.1750917,35.8677964 27.1141197,36.4706158 26.0664417,37.0954633 C25.348832,37.5234006 24.6755357,37.5099688 23.9414091,37.1005674 C21.3352396,35.6473805 18.7458556,34.1657182 16.1817167,32.6398652 C15.7683929,32.3939289 15.3553375,32.147321 14.9420137,31.9013846 C14.3508988,31.54974 14.0092822,31.0413462 14.008745,30.3434297 C14.0055222,26.7768827 14.0057908,23.2104701 14.0127735,19.6440575 C14.0142506,18.9227696 14.3914523,18.4237781 15.0039183,18.0709246 C16.2343558,17.361994 17.4583477,16.6421836 18.6850252,15.92694 C20.4362132,14.9202263 22.2035152,13.9421223 23.9243552,12.88195 C24.5299727,12.5088145 25.2059546,12.4201646 25.8701196,12.8035083 C28.9672287,14.5910128 32.0670234,16.3740848 35.1583583,18.1715288 C35.779687,18.5328443 36.0046114,19.1272017 36.0013886,19.8314311 C35.9941373,21.3887145 36.0001801,22.9461322 36.0007172,24.5034156 C36.0013886,26.2784285 35.9576123,28.0549189 36.0187112,29.8277827 C36.0563105,30.9193855 35.6443294,31.6546424 34.6876955,32.1248899 C34.5695262,32.1829153 34.4647853,32.2682072 34.353733,32.340739 C32.6469928,33.3141418 30.9390441,34.2853956 29.2339152,35.2616191 M49.9386481,23.1952922 C49.8339072,21.6318302 48.7479584,20.3696435 47.2254548,19.9590333 C46.5008624,19.7636005 45.7614988,19.8408334 45.027775,19.83855 C44.7222806,19.8376098 44.5643635,19.7853601 44.4702309,19.4413716 C44.0589213,17.9379497 43.4707606,16.5007467 42.6889635,15.1496415 C42.5337321,14.8815427 42.5722714,14.7282858 42.7864532,14.5149888 C43.2094454,14.0937674 43.617398,13.6570994 44.0139364,13.2069997 C45.028715,12.0549538 45.1213705,9.87765838 43.795189,8.48773529 C43.0556911,7.71258588 42.2991392,6.95194281 41.5206992,6.21614858 C40.3741887,5.13273926 38.8167714,4.92118834 37.3767178,5.58754015 C36.5902207,5.9512734 36.0875985,6.63414632 35.4911123,7.20969913 C35.2789447,7.41439982 35.1339188,7.47296249 34.8585038,7.31392993 C33.4927088,6.52561735 32.0425839,5.92884229 30.520886,5.51702317 C30.2320427,5.43898439 30.1581869,5.30896453 30.1628868,5.03092618 C30.1726895,4.44556816 30.1787322,3.8569865 30.1301217,3.27431484 C29.9939585,1.64396245 28.5959355,0.206893731 26.9657367,0.0775454575 C25.6478808,-0.0270882967 24.3202222,-0.0257451162 23.0020977,0.0810377265 C21.6124003,0.193461927 20.3197896,1.35558162 19.9682361,2.69298636 C19.7647969,3.46719555 19.8502011,4.25335904 19.8421441,5.03495572 C19.8393241,5.31420293 19.7660055,5.44046189 19.4802507,5.51917226 C17.9611042,5.9378416 16.5096364,6.53139302 15.1439757,7.31983992 C14.8695007,7.47833521 14.7125236,7.43293571 14.5119044,7.21332572 C14.1736449,6.84301088 13.8151086,6.48867988 13.4430097,6.15207887 C12.1679901,4.99868985 10.306287,4.89808564 8.91672384,5.89445687 C7.81184119,6.74442143 6.84325604,7.74468789 5.95940363,8.80768087 C4.8542524,10.1370265 4.97228739,12.1211726 6.13356901,13.4223115 C6.46753148,13.7965216 6.81935362,14.1585087 7.19319821,14.492289 C7.43933943,14.7120333 7.4555877,14.8925568 7.29605919,15.1722069 C6.52218477,16.5277446 5.93550121,17.964679 5.52137164,19.4686381 C5.44496446,19.7461392 5.33498647,19.8478179 5.04547177,19.8424452 C4.4436142,19.8310282 3.8379967,19.8244466 3.23922765,19.8764277 C1.68570462,20.011283 0.222017099,21.4206822 0.0867938571,22.9223579 C-0.0303011448,24.224437 -0.0219755827,25.5345752 0.0702770163,26.836117 C0.196771846,28.6185174 1.62594857,30.009918 3.40291894,30.1406094 C3.95280889,30.1810392 4.50713018,30.1751292 5.05903437,30.1674731 C5.29550719,30.1642494 5.4374446,30.2342291 5.50055773,30.466868 C5.92086433,32.0191816 6.53937302,33.4914416 7.33392707,34.8871404 C7.4852643,35.1532244 7.42685108,35.2956016 7.22797758,35.4804232 C6.87266407,35.8105769 6.52943606,36.1553713 6.19950209,36.5111798 C4.93025673,37.8801493 4.85734092,39.9661085 6.0943583,41.3634191 C6.88072107,42.2516643 7.7291227,43.0931668 8.61230369,43.8857776 C9.869195,45.0137805 11.7441921,45.1094149 13.0663451,44.1321168 C13.6068352,43.732655 14.0701125,43.225873 14.5511151,42.7503872 C14.7334718,42.569998 14.8670836,42.5303742 15.1065107,42.6669757 C16.4882854,43.4558255 17.9504958,44.0617342 19.4817278,44.4924922 C19.7673483,44.5728143 19.8402641,44.716669 19.8361013,44.9897375 C19.8275072,45.5417847 19.8228073,46.0962496 19.8647037,46.6460133 C19.9958984,48.3646126 21.3962042,49.7959057 23.1087186,49.9335817 C24.3605072,50.0343202 25.6171299,50.0063821 26.8716041,49.9427153 C28.4711863,49.8615872 30.1227361,48.2208923 30.1461014,46.5734816 C30.1538898,46.0211658 30.1655725,45.4687157 30.1627525,44.9162656 C30.161544,44.6908799 30.2031718,44.5640837 30.4652927,44.4958501 C32.0087445,44.0939705 33.4720292,43.4847039 34.8554153,42.6924961 C35.1280103,42.5364185 35.2876731,42.573356 35.4904408,42.7961896 C35.8280289,43.1670417 36.1869681,43.5211041 36.5593356,43.8573021 C37.7858789,44.9646201 39.5558665,45.1016245 40.9110532,44.2171402 C41.9565826,43.5348045 42.7272342,42.5639537 43.5906756,41.6900805 C43.4588094,41.5404502 43.3347317,41.3830295 43.1940028,41.2422642 C43.3347317,41.3830295 43.4588094,41.5404502 43.5906756,41.6900805 C45.0660458,40.3505267 45.1972405,38.0898198 43.872939,36.5933825 C43.5184312,36.1927117 43.1315611,35.8195762 42.7441539,35.449933 C42.5595144,35.2737077 42.5239294,35.1407329 42.6622411,34.8989604 C43.4534381,33.5157532 44.0648298,32.0530297 44.4813764,30.5145509 C44.5610064,30.2205287 44.7007953,30.1565933 44.9733903,30.1637122 C45.491858,30.177144 46.0124742,30.1809049 46.5297333,30.1486685 C48.3601484,30.0344982 49.8097362,28.6299344 49.9375738,26.809522 C50.0219037,25.6071069 50.0193523,24.3981102 49.9386481,23.1952922" id="Fill-1" fill="#0F135A" mask="url(#mask-2)"></path>
            </g>
        </g>
    </g>
</svg>