<svg xmlns="http://www.w3.org/2000/svg" width="180" height="140.98" viewBox="0 0 180 140.98">
  <g id="faq" transform="translate(-199.614 -373.122)">
    <path id="Path_10767" data-name="Path 10767" d="M475.755,468.733,384,480.059a16.708,16.708,0,0,1-18.575-14.493l-7.7-62.407a16.708,16.708,0,0,1,14.493-18.575l91.751-11.327a16.708,16.708,0,0,1,18.575,14.493l7.7,62.407A16.708,16.708,0,0,1,475.755,468.733Z" transform="translate(-140.22 -0.01)" fill="#ff6a16" opacity="0.1"/>
    <path id="Path_10768" data-name="Path 10768" d="M379.614,1368.487l-37.745.032q-1.472,0-2.944,0h-.36c-.437,0-.873,0-1.311,0h-3.34c-.106,0-.213,0-.319,0h-3.044c-.181,0-.362,0-.542,0h-3.3l-127.1.108c6.375-4.3,15.914-9.207,27.646-9.266,8.288-.041,9.776,2.376,17.316,1.975,14.982-.8,18.167-10.82,31.443-13.823,15.357-3.474,18.446,8.274,35.848,7.747a37.571,37.571,0,0,0,18.1-5.353c1.566-.9,3.055-1.87,4.481-2.857,8.611-5.959,15.035-12.661,23.6-10.777C364.763,1337.763,373.067,1344.583,379.614,1368.487Z" transform="translate(0 -854.572)" fill="#fff0e7"/>
    <g id="Group_1722" data-name="Group 1722" transform="translate(322.494 490.978)">
      <g id="Group_1716" data-name="Group 1716" transform="translate(0 10.399)" opacity="0.5">
        <path id="Path_10769" data-name="Path 10769" d="M1302.189,1526.3h-1.721c-.181,0-.362,0-.542,0h-3.3c-2.28-2.6-5.6-7.519-3.6-12.582a15.568,15.568,0,0,1,5.421,3.615A12.986,12.986,0,0,1,1302.189,1526.3Z" transform="translate(-1292.412 -1513.72)" fill="#89a831"/>
      </g>
      <g id="Group_1717" data-name="Group 1717" transform="translate(2.172 13.186)">
        <path id="Path_10770" data-name="Path 10770" d="M1317.067,1548.3h-.36l-4.964-9.561a.158.158,0,0,1,.068-.214.16.16,0,0,1,.216.067Z" transform="translate(-1311.725 -1538.508)" fill="#30354f"/>
      </g>
      <g id="Group_1718" data-name="Group 1718" transform="translate(13.804 10.399)" opacity="0.5">
        <path id="Path_10771" data-name="Path 10771" d="M1420.744,1526.29q-1.472,0-2.944,0h-.36c-.437,0-.873,0-1.311,0h-.955a12.959,12.959,0,0,1,2.76-7.835,15.563,15.563,0,0,1,6.4-4.739C1426.332,1518.775,1423.024,1523.686,1420.744,1526.29Z" transform="translate(-1415.174 -1513.72)" fill="#89a831"/>
      </g>
      <g id="Group_1719" data-name="Group 1719" transform="translate(16.07 13.186)">
        <path id="Path_10772" data-name="Path 10772" d="M1440.65,1538.741l-4.961,9.553h-.36l5.038-9.7a.16.16,0,0,1,.216-.067A.158.158,0,0,1,1440.65,1538.741Z" transform="translate(-1435.329 -1538.508)" fill="#30354f"/>
      </g>
      <g id="Group_1720" data-name="Group 1720" transform="translate(5.95)">
        <path id="Path_10773" data-name="Path 10773" d="M1355.942,1436.378a20.067,20.067,0,0,1-1.8,7.835h-3.34c-.106,0-.213,0-.319,0h-3.044a35.073,35.073,0,0,1-2.02-8.964,19.262,19.262,0,0,1,1.434-9.646,13.319,13.319,0,0,1,3.237-4.369,16.709,16.709,0,0,1,1.244,1.511A22.609,22.609,0,0,1,1355.942,1436.378Z" transform="translate(-1345.329 -1421.24)" fill="#89a831"/>
      </g>
      <g id="Group_1721" data-name="Group 1721" transform="translate(10.866 5.026)">
        <path id="Path_10774" data-name="Path 10774" d="M1389.6,1483.888c-.106,0-.213,0-.319,0l-.234-17.787a.161.161,0,0,1,.158-.163h0a.16.16,0,0,1,.159.158Z" transform="translate(-1389.049 -1465.94)" fill="#30354f"/>
      </g>
    </g>
    <g id="Group_1789" data-name="Group 1789" transform="translate(208.88 375.535)">
      <g id="Group_1786" data-name="Group 1786" transform="translate(0 0)">
        <g id="Group_1785" data-name="Group 1785">
          <g id="Group_1781" data-name="Group 1781">
            <g id="Group_1723" data-name="Group 1723" transform="translate(82.757 1.063)">
              <path id="Path_10775" data-name="Path 10775" d="M1018.183,426.121c-.2-.409-.819-4.707,2.183-9.209s.546-7.3,2.456-9.14,3.274-.955,3.274-.955a4.106,4.106,0,0,1,2.251-2.456,5.114,5.114,0,0,1,6.207,2.387c1.637,2.66,1.432,3.615.546,8.868s2.66,6,2.592,9.345,4.229,7.23,5.73,15.894-.614,12.892-7.231,12.005S1018.183,426.121,1018.183,426.121Z" transform="translate(-1017.99 -404.041)" fill="#251138"/>
            </g>
            <g id="Group_1780" data-name="Group 1780">
              <g id="Group_1772" data-name="Group 1772">
                <g id="Group_1725" data-name="Group 1725" transform="translate(136.819 93.785)">
                  <g id="Group_1724" data-name="Group 1724">
                    <path id="Path_10776" data-name="Path 10776" d="M1499.2,1233.089l-.427,11.141a1.515,1.515,0,0,0,1.161,1.531h0a1.515,1.515,0,0,0,1.827-1.12l3.625-15.116-5.061-.892Z" transform="translate(-1498.775 -1228.633)" fill="#1c5276"/>
                  </g>
                </g>
                <g id="Group_1726" data-name="Group 1726" transform="translate(133.669 93.084)">
                  <path id="Rectangle_2390" data-name="Rectangle 2390" d="M0,0H4.6a0,0,0,0,1,0,0V3.713a2.3,2.3,0,0,1-2.3,2.3h0A2.3,2.3,0,0,1,0,3.713V0A0,0,0,0,1,0,0Z" transform="translate(0 4.469) rotate(-76.514)" fill="#fb855f"/>
                </g>
                <g id="Group_1728" data-name="Group 1728" transform="translate(76.912 130.78)">
                  <g id="Group_1727" data-name="Group 1727">
                    <path id="Path_10777" data-name="Path 10777" d="M977.339,1558.4l-10.369,4.1a1.515,1.515,0,0,0-.934,1.679h0a1.515,1.515,0,0,0,1.761,1.221l15.3-2.77-1.221-4.991Z" transform="translate(-966.011 -1557.636)" fill="#1c5276"/>
                  </g>
                </g>
                <g id="Group_1729" data-name="Group 1729" transform="translate(87.428 127.174)">
                  <path id="Rectangle_2391" data-name="Rectangle 2391" d="M0,0H4.6a0,0,0,0,1,0,0V3.713a2.3,2.3,0,0,1-2.3,2.3h0A2.3,2.3,0,0,1,0,3.713V0A0,0,0,0,1,0,0Z" transform="translate(0 0.819) rotate(-10.265)" fill="#fb855f"/>
                </g>
                <g id="Group_1732" data-name="Group 1732" transform="translate(47.932 8.35)">
                  <g id="Group_1731" data-name="Group 1731">
                    <g id="Group_1730" data-name="Group 1730">
                      <path id="Path_10778" data-name="Path 10778" d="M713.1,468.847a104.49,104.49,0,0,1,11.557,11.724,28.43,28.43,0,0,1,3.366,5.053c1.189,2.449,1.331,4.508-.475,5.595a2.811,2.811,0,0,1-.889.349s0,0,0,0a3.2,3.2,0,0,1-.824.059h-.02a5.068,5.068,0,0,1-1.675-.433,15.392,15.392,0,0,1-4.208-3.01c-5.732-5.4-11.643-15.249-11.643-15.249C709.19,469.458,713.1,468.847,713.1,468.847Z" transform="translate(-708.285 -468.847)" fill="#ffaa40"/>
                    </g>
                  </g>
                </g>
                <g id="Group_1734" data-name="Group 1734" transform="translate(60.846 21.677)">
                  <g id="Group_1733" data-name="Group 1733">
                    <path id="Path_10779" data-name="Path 10779" d="M849.511,596.578s-11.536,2.247-19.349,1.026c-2.61-.406-4.8-1.2-6.015-2.591,0,0,0,0,0,0a4.275,4.275,0,0,1-.479-.673.1.1,0,0,1-.01-.018,4.015,4.015,0,0,1-.5-1.656,4.41,4.41,0,0,1-.018-.543c.038-1.592,1.37-2.679,3.412-3.406a25.047,25.047,0,0,1,5.949-1.132,98.757,98.757,0,0,1,16.643.391C852.732,589.109,853.554,595.267,849.511,596.578Z" transform="translate(-823.135 -587.365)" fill="#ffaa40"/>
                  </g>
                </g>
                <g id="Group_1735" data-name="Group 1735" transform="translate(64.267 22.244)">
                  <rect id="Rectangle_2392" data-name="Rectangle 2392" width="3.959" height="0.504" transform="translate(0 3.649) rotate(-67.166)" fill="#251138"/>
                </g>
                <g id="Group_1736" data-name="Group 1736" transform="translate(75.049 54.474)">
                  <path id="Path_10780" data-name="Path 10780" d="M956.71,924.551h0a6.348,6.348,0,0,1-6.341-5.991c-.787-14.24-1.133-28.827-.8-39.526h13.9c-.439,12.187-.547,26.369-.407,39.1A6.35,6.35,0,0,1,956.71,924.551Z" transform="translate(-949.442 -879.033)" fill="#494e6d"/>
                </g>
                <g id="Group_1737" data-name="Group 1737" transform="translate(75.498 84.881)">
                  <path id="Path_10781" data-name="Path 10781" d="M958.636,1149.547h0a6.326,6.326,0,0,0-5.021,7.722c2.909,11.946,7.135,29.409,9.073,37.055l10.582-1.917c-2.018-8.746-5.166-26.855-7.3-37.84A6.326,6.326,0,0,0,958.636,1149.547Z" transform="translate(-953.434 -1149.444)" fill="#494e6d"/>
                </g>
                <g id="Group_1738" data-name="Group 1738" transform="translate(89.05 50.734)">
                  <path id="Path_10782" data-name="Path 10782" d="M1081.548,891.348h0a6.348,6.348,0,0,1-6.393-5.936c-.911-14.233-1.383-28.816-1.143-39.518l13.9-.121c-.333,12.191-.318,26.372-.067,39.1A6.351,6.351,0,0,1,1081.548,891.348Z" transform="translate(-1073.951 -845.773)" fill="#494e6d"/>
                </g>
                <g id="Group_1739" data-name="Group 1739" transform="translate(90.384 83.568)">
                  <path id="Path_10783" data-name="Path 10783" d="M1085.958,1142.8h0a6.326,6.326,0,0,0,5.261,7.56c12.162,1.806,29.931,4.471,37.743,5.557l2.212-10.525c-8.862-1.426-26.823-5.333-37.8-7.5A6.326,6.326,0,0,0,1085.958,1142.8Z" transform="translate(-1085.821 -1137.769)" fill="#494e6d"/>
                </g>
                <g id="Group_1741" data-name="Group 1741" transform="translate(75.176 20.871)">
                  <g id="Group_1740" data-name="Group 1740">
                    <path id="Path_10784" data-name="Path 10784" d="M950.568,613.794s.356-28.207,8.134-32.222c4.459-2.3,13.688-1.677,18.394,1.5,4.75,3.21,1.4,30.719,1.4,30.719Z" transform="translate(-950.568 -580.19)" fill="#ffaa40"/>
                  </g>
                </g>
                <g id="Group_1746" data-name="Group 1746" transform="translate(40.684 2.861)">
                  <g id="Group_1742" data-name="Group 1742">
                    <path id="Path_10785" data-name="Path 10785" d="M655.951,426.164a5.783,5.783,0,0,0-1.217-2.423,6.183,6.183,0,0,1-2.008-2.874c-.4-1.412-1.87-.876-1.464.338s1.323,3.073-.285,2.932-4.245-3.5-5.13-1.218c0,0-1.528-1.241-1.945-.566s.961,1.808.961,1.808-2.119.586,1.848,2.889c0,0-.686.746.032,1.287a13.094,13.094,0,0,0,6.642,1.625C657.36,429.883,655.951,426.164,655.951,426.164Z" transform="translate(-643.823 -420.024)" fill="#fd8b66"/>
                  </g>
                  <g id="Group_1743" data-name="Group 1743" transform="translate(1.923 2.817)">
                    <path id="Path_10786" data-name="Path 10786" d="M662.4,446.31a28.071,28.071,0,0,0,3.1,1.527l.1-.232c-3.71-1.6-4.462-2.516-4.469-2.525l-.2.154A5.546,5.546,0,0,0,662.4,446.31Z" transform="translate(-660.926 -445.08)" fill="#e56542"/>
                  </g>
                  <g id="Group_1744" data-name="Group 1744" transform="translate(0.968 4.033)">
                    <path id="Path_10787" data-name="Path 10787" d="M654.038,457.1a18.768,18.768,0,0,0,3.208,1.558l.08-.239a24.968,24.968,0,0,1-4.747-2.531l-.142.208C652.449,456.105,653.117,456.559,654.038,457.1Z" transform="translate(-652.436 -455.888)" fill="#e56542"/>
                  </g>
                  <g id="Group_1745" data-name="Group 1745" transform="translate(2.843 6.908)">
                    <path id="Path_10788" data-name="Path 10788" d="M669.109,481.694c.016.006,1.578.586,2.817.992l.079-.24c-1.235-.4-2.792-.983-2.808-.988Z" transform="translate(-669.109 -481.458)" fill="#e56542"/>
                  </g>
                </g>
                <circle id="Ellipse_803" data-name="Ellipse 803" cx="38.582" cy="38.582" r="38.582" fill="#ff6a16"/>
                <g id="Group_1747" data-name="Group 1747" transform="translate(87.876 14.362)">
                  <path id="Path_10789" data-name="Path 10789" d="M1067.227,533.74c-2.942,0-4.283-3.437-3.493-4.227a2.785,2.785,0,0,0,.555-.86h0a5.8,5.8,0,0,0,.4-1.493l0,0,5.439-4.852c-.294,3.089,1.028,5.258,1.508,6.8S1070.573,533.74,1067.227,533.74Z" transform="translate(-1063.511 -522.307)" fill="#fb855f"/>
                </g>
                <g id="Group_1748" data-name="Group 1748" transform="translate(88.656 17.008)">
                  <path id="Path_10790" data-name="Path 10790" d="M1075.34,546.85a5.192,5.192,0,0,1-4.886,2.694,5.8,5.8,0,0,0,.4-1.493l0,0C1071,547.964,1076.8,544.054,1075.34,546.85Z" transform="translate(-1070.454 -545.844)" fill="#e56542"/>
                </g>
                <g id="Group_1749" data-name="Group 1749" transform="translate(93.776 8.222)">
                  <path id="Path_10791" data-name="Path 10791" d="M1122.085,468.29s-.234,2.819-4.333,5.724c-4.3,3.045.594-6.314.594-6.314Z" transform="translate(-1115.984 -467.7)" fill="#251138"/>
                </g>
                <g id="Group_1750" data-name="Group 1750" transform="translate(86.718 7.118)">
                  <path id="Path_10792" data-name="Path 10792" d="M1055.182,457.886s-.58,2.43-1.333,5.157c-1.076,3.9-1.167,7.05,2.8,7.05,6.669,0,6.225-11.067,6.225-11.067Z" transform="translate(-1053.214 -457.886)" fill="#fb855f"/>
                </g>
                <g id="Group_1751" data-name="Group 1751" transform="translate(77.125 30.057)">
                  <rect id="Rectangle_2393" data-name="Rectangle 2393" width="4.311" height="0.504" transform="translate(0 4.187) rotate(-76.205)" fill="#251138"/>
                </g>
                <g id="Group_1752" data-name="Group 1752" transform="translate(82.199 55.272)">
                  <path id="Path_10793" data-name="Path 10793" d="M1013.031,899.5l12.005-.546-3.82-12.005-5.73-.819Z" transform="translate(-1013.031 -886.127)" fill="#494e6d"/>
                </g>
                <g id="Group_1753" data-name="Group 1753" transform="translate(86.01 54.559)">
                  <path id="Path_10794" data-name="Path 10794" d="M1050.456,888.118l.042-.5-3.013-.251.923-7.516-.5-.062-.987,8.036Z" transform="translate(-1046.921 -879.787)" fill="#251138"/>
                </g>
                <g id="Group_1754" data-name="Group 1754" transform="translate(93.25 12.639)">
                  <circle id="Ellipse_804" data-name="Ellipse 804" cx="2.234" cy="2.234" r="2.234" fill="#fb855f"/>
                </g>
                <g id="Group_1755" data-name="Group 1755" transform="translate(74.939 54.35)">
                  <path id="Path_10795" data-name="Path 10795" d="M948.793,890.407l1.626-1.434.551-11.02-.5-.025-.54,10.808-1.467,1.294Z" transform="translate(-948.459 -877.927)" fill="#251138"/>
                </g>
                <g id="Group_1756" data-name="Group 1756" transform="translate(100.072 55.133)">
                  <path id="Path_10796" data-name="Path 10796" d="M1174.514,897.809l.25-.438-1.95-1.114-.339-11.368-.5.015.348,11.651Z" transform="translate(-1171.971 -884.888)" fill="#251138"/>
                </g>
                <g id="Group_1758" data-name="Group 1758" transform="translate(83.794 124.125)">
                  <g id="Group_1757" data-name="Group 1757">
                    <path id="Path_10797" data-name="Path 10797" d="M1028.17,1504.088l-.959-3.336,10.4-2.3,1.143,3.718Z" transform="translate(-1027.211 -1498.454)" fill="#251138"/>
                  </g>
                </g>
                <g id="Group_1759" data-name="Group 1759" transform="translate(129.4 90.612)">
                  <path id="Path_10798" data-name="Path 10798" d="M1432.793,1210.909l4.125.607,2.212-10.524-4.15-.576Z" transform="translate(-1432.793 -1200.415)" fill="#251138"/>
                </g>
                <g id="Group_1760" data-name="Group 1760" transform="translate(86.105 21.015)">
                  <path id="Path_10799" data-name="Path 10799" d="M1053.43,588.21c3.936,0,5.025-2.374,6.169-5.888l-.479-.156c-1.318,4.05-2.416,5.91-6.778,5.483-4.342-.426-4.083-5.913-4.07-6.147l-.5-.029c0,.062-.3,6.2,4.523,6.677Q1052.9,588.21,1053.43,588.21Z" transform="translate(-1047.765 -581.474)" fill="#251138"/>
                </g>
                <g id="Group_1761" data-name="Group 1761" transform="translate(88.686 2.662)">
                  <path id="Path_10800" data-name="Path 10800" d="M1078.331,425.55a2.042,2.042,0,0,0-2.456-1.455c-1.91.455-2.819,1.364-3.82.91s-1.335-2.292-1.335-2.292,1.789-5.8,7.519-4.165S1081.7,425,1081.7,425l-2,.909Z" transform="translate(-1070.721 -418.255)" fill="#251138"/>
                </g>
                <g id="Group_1763" data-name="Group 1763" transform="translate(72.633 45.907)">
                  <g id="Group_1762" data-name="Group 1762">
                    <path id="Path_10801" data-name="Path 10801" d="M952.272,808.106a.026.026,0,0,1,.008-.01c.123-.176.237-.348.335-.522a3.628,3.628,0,0,0,.549-2.019,2.89,2.89,0,0,0-.135-.713c-.511-1.578-1.884-2.118-3.74-1.979a19.319,19.319,0,0,0-5.927,1.756c-7.09,3.114-15.4,9.224-15.4,9.224s-.292,3.946,2.891,5.617c0,0,11.57-3.73,18.046-8.264A14.154,14.154,0,0,0,952.272,808.106Z" transform="translate(-927.959 -802.842)" fill="#ffaa40"/>
                  </g>
                </g>
                <g id="Group_1766" data-name="Group 1766" transform="translate(89.318 26.005)">
                  <g id="Group_1765" data-name="Group 1765">
                    <g id="Group_1764" data-name="Group 1764">
                      <path id="Path_10802" data-name="Path 10802" d="M1080.526,653.888a.027.027,0,0,1,.013,0,4.1,4.1,0,0,0,.606-.13,4.982,4.982,0,0,0,1.819-1.034,12.745,12.745,0,0,0,2.866-4.019c3.494-7.058,4.823-18.779,4.823-18.779.056-4.25-5.907-5.408-8.137-2.37,0,0-4.461,9.908-5.8,17.557a14.034,14.034,0,0,0,.006,6.514,3.034,3.034,0,0,0,1.813,2.012A4.192,4.192,0,0,0,1080.526,653.888Z" transform="translate(-1076.34 -625.848)" fill="#ffaa40"/>
                    </g>
                  </g>
                </g>
                <g id="Group_1767" data-name="Group 1767" transform="translate(65.291 56.528)">
                  <path id="Path_10803" data-name="Path 10803" d="M871.422,897.553a5.533,5.533,0,0,0-2.751-.12,5.73,5.73,0,0,1-3.506.4c-1.472-.36-1.61,1.319-.319,1.574s3.394.362,2.572,1.82-5.04,2.2-3.328,4.246c0,0-1.8.8-1.357,1.555s2.076.039,2.076.039-.373,2.328,3.451-.236c0,0,.391,1.048,1.2.649,1.289-.638,3.345-3.115,4.353-5.473C875.447,898.174,871.422,897.553,871.422,897.553Z" transform="translate(-862.664 -897.3)" fill="#fd8b66"/>
                </g>
                <g id="Group_1768" data-name="Group 1768" transform="translate(66.697 61.651)">
                  <path id="Path_10804" data-name="Path 10804" d="M875.206,946.029c.049-.008,1.226-.223,4.365-2.983l-.166-.189c-3.06,2.69-4.228,2.922-4.24,2.924Z" transform="translate(-875.165 -942.856)" fill="#e56542"/>
                </g>
                <g id="Group_1769" data-name="Group 1769" transform="translate(67.375 62.996)">
                  <path id="Path_10805" data-name="Path 10805" d="M881.317,958.224a23.272,23.272,0,0,0,4.427-3.233l-.182-.174A23,23,0,0,1,881.194,958Z" transform="translate(-881.194 -954.817)" fill="#e56542"/>
                </g>
                <g id="Group_1770" data-name="Group 1770" transform="translate(70.799 63.813)">
                  <path id="Path_10806" data-name="Path 10806" d="M911.824,964.42c.012-.012,1.217-1.195,2.124-2.162l-.184-.172c-.9.963-2.1,2.142-2.117,2.154Z" transform="translate(-911.647 -962.086)" fill="#e56542"/>
                </g>
                <g id="Group_1771" data-name="Group 1771" transform="translate(89.247 46.771)">
                  <rect id="Rectangle_2394" data-name="Rectangle 2394" width="0.504" height="2.221" transform="matrix(0.546, -0.838, 0.838, 0.546, 0, 0.422)" fill="#251138"/>
                </g>
              </g>
              <g id="Group_1773" data-name="Group 1773" transform="translate(91.863 11.957)">
                <circle id="Ellipse_805" data-name="Ellipse 805" cx="0.466" cy="0.466" r="0.466" fill="#8e3332"/>
              </g>
              <g id="Group_1774" data-name="Group 1774" transform="translate(88.957 11.315)">
                <circle id="Ellipse_806" data-name="Ellipse 806" cx="0.466" cy="0.466" r="0.466" fill="#8e3332"/>
              </g>
              <g id="Group_1775" data-name="Group 1775" transform="translate(89.072 12.307)">
                <path id="Path_10807" data-name="Path 10807" d="M1075.183,507.23a1.484,1.484,0,0,0,.61-.137l-.207-.459a.7.7,0,0,1-.914-.156c-.108-.224.231-.421.338-.475a1.956,1.956,0,0,0,1.055-1.97l-.5.071a1.451,1.451,0,0,1-.786,1.45c-.658.338-.714.827-.562,1.142A1.052,1.052,0,0,0,1075.183,507.23Z" transform="translate(-1074.147 -504.033)" fill="#8e3332"/>
              </g>
              <g id="Group_1776" data-name="Group 1776" transform="translate(88.603 16.322)">
                <path id="Path_10808" data-name="Path 10808" d="M1069.991,539.743l1.77.268s-.3,1.153-1.1,1.019S1069.991,539.743,1069.991,539.743Z" transform="translate(-1069.983 -539.743)" fill="#fff"/>
              </g>
              <g id="Group_1777" data-name="Group 1777" transform="translate(92.599 10.341)">
                <path id="Path_10809" data-name="Path 10809" d="M1106.594,487.858l.46-.207a1.846,1.846,0,0,0-1.513-1.1l-.026.5.013-.252-.015.252A1.343,1.343,0,0,1,1106.594,487.858Z" transform="translate(-1105.513 -486.548)" fill="#8e3332"/>
              </g>
              <g id="Group_1778" data-name="Group 1778" transform="translate(88.871 9.584)">
                <path id="Path_10810" data-name="Path 10810" d="M1073.938,480.6l.292-.411a2.52,2.52,0,0,0-1.864-.312l.116.49A2.04,2.04,0,0,1,1073.938,480.6Z" transform="translate(-1072.366 -479.818)" fill="#8e3332"/>
              </g>
              <g id="Group_1779" data-name="Group 1779" transform="translate(95.523 14.284)">
                <path id="Path_10811" data-name="Path 10811" d="M1132.478,522.877l.5-.076a1.511,1.511,0,0,0-1.415-1.181l-.039.5.02-.251-.02.251C1131.556,522.124,1132.374,522.2,1132.478,522.877Z" transform="translate(-1131.521 -521.619)" fill="#8e3332"/>
              </g>
            </g>
          </g>
          <g id="Group_1783" data-name="Group 1783" transform="translate(92.331 86.528)">
            <g id="Group_1782" data-name="Group 1782">
              <circle id="Ellipse_807" data-name="Ellipse 807" cx="4.055" cy="4.055" r="4.055" fill="#251138"/>
            </g>
          </g>
          <g id="Group_1784" data-name="Group 1784" transform="translate(77.212 89.505)">
            <circle id="Ellipse_808" data-name="Ellipse 808" cx="4.227" cy="4.227" r="4.227" fill="#251138"/>
          </g>
        </g>
      </g>
      <g id="Group_1787" data-name="Group 1787" transform="translate(98.078 34.125)">
        <path id="Path_10812" data-name="Path 10812" d="M1154.668,712.34c3.517-5.778,4.329-14.143,4.337-14.226l-.5-.047c-.008.083-.81,8.334-4.266,14.011Z" transform="translate(-1154.238 -698.067)" fill="#251138"/>
      </g>
      <g id="Group_1788" data-name="Group 1788" transform="translate(75.483 51.077)">
        <rect id="Rectangle_2395" data-name="Rectangle 2395" width="6.223" height="0.504" transform="matrix(0.85, -0.526, 0.526, 0.85, 0, 3.276)" fill="#251138"/>
      </g>
    </g>
    <g id="Group_1790" data-name="Group 1790" transform="translate(234.839 392.876)">
      <path id="Path_10813" data-name="Path 10813" d="M517.876,579.064a19.048,19.048,0,0,1,.2-2.809,9.638,9.638,0,0,1,.766-2.586,8.127,8.127,0,0,1,1.632-2.33,10.877,10.877,0,0,1,2.8-1.979q.865-.446,2.3-1.181a23.688,23.688,0,0,0,2.8-1.692,11.428,11.428,0,0,0,2.365-2.2,4.327,4.327,0,0,0,1-2.777,3.857,3.857,0,0,0-1.6-3.288,6.009,6.009,0,0,0-3.664-1.181,5.559,5.559,0,0,0-2.365.479,8.966,8.966,0,0,0-1.865,1.149,7.752,7.752,0,0,0-1.432,1.5q-.6.831-1.066,1.468l-6.862-4.6a12.913,12.913,0,0,1,5.5-6.065,16.7,16.7,0,0,1,8.495-2.171,18.887,18.887,0,0,1,5.063.7,13.155,13.155,0,0,1,4.53,2.235,11.75,11.75,0,0,1,3.264,3.958,12.574,12.574,0,0,1,1.266,5.874,11.14,11.14,0,0,1-1.566,6.1,13.8,13.8,0,0,1-4.63,4.31,28.717,28.717,0,0,1-2.831,1.6,26.869,26.869,0,0,0-2.632,1.468,7.433,7.433,0,0,0-1.932,1.724,3.666,3.666,0,0,0-.733,2.3Zm.2,15.642v-9.577H526.8v9.577Z" transform="translate(-512.879 -548.801)" fill="#fff"/>
    </g>
    <path id="Path_10814" data-name="Path 10814" d="M1300.11,393.969h29.563a2.955,2.955,0,0,0,2.955-2.955V376.077a2.954,2.954,0,0,0-2.955-2.955H1300.11a2.955,2.955,0,0,0-2.955,2.955v14.938A2.955,2.955,0,0,0,1300.11,393.969Z" transform="translate(-974.127)" fill="#ffaa40"/>
    <path id="Path_10815" data-name="Path 10815" d="M1265.081,470.039l-5.972,5.971h5.615Z" transform="translate(-940.359 -86.019)" fill="#ffaa40"/>
    <rect id="Rectangle_2396" data-name="Rectangle 2396" width="25.668" height="1.719" rx="0.86" transform="translate(353.42 379.857) rotate(-180)" fill="#fff"/>
    <rect id="Rectangle_2397" data-name="Rectangle 2397" width="16.845" height="1.719" rx="0.86" transform="translate(353.42 384.277) rotate(180)" fill="#fff"/>
    <rect id="Rectangle_2398" data-name="Rectangle 2398" width="22.371" height="1.719" rx="0.86" transform="translate(353.42 389.189) rotate(180)" fill="#fff"/>
    <circle id="Ellipse_809" data-name="Ellipse 809" cx="6.987" cy="6.987" r="6.987" transform="translate(337.69 414.421)" fill="#ff6a16"/>
    <circle id="Ellipse_810" data-name="Ellipse 810" cx="6.987" cy="6.987" r="6.987" transform="translate(203.563 398.776)" fill="#ffaa40"/>
    <circle id="Ellipse_811" data-name="Ellipse 811" cx="4.405" cy="4.405" r="4.405" transform="translate(343.31 455.434)" fill="#ffaa40"/>
    <circle id="Ellipse_812" data-name="Ellipse 812" cx="4.101" cy="4.101" r="4.101" transform="translate(270.399 472.295)" fill="none" stroke="#ff6a16" stroke-miterlimit="10" stroke-width="1"/>
    <circle id="Ellipse_813" data-name="Ellipse 813" cx="2.43" cy="2.43" r="2.43" transform="translate(322.272 434.244)" fill="none" stroke="#ff6a16" stroke-miterlimit="10" stroke-width="1"/>
    <circle id="Ellipse_814" data-name="Ellipse 814" cx="2.886" cy="2.886" r="2.886" transform="translate(276.399 374.852)" fill="none" stroke="#ff6a16" stroke-miterlimit="10" stroke-width="1"/>
    <circle id="Ellipse_815" data-name="Ellipse 815" cx="5.165" cy="5.165" r="5.165" transform="translate(221.335 465.004)" fill="#ffaa40"/>
    <g id="Group_1793" data-name="Group 1793" transform="translate(213.589 488.548)">
      <g id="Group_1791" data-name="Group 1791" transform="translate(0)">
        <path id="Path_10816" data-name="Path 10816" d="M323.892,1426.207v-25.014h17.72v5.073H329.921v5.39h9.632v4.686h-9.632v9.865Z" transform="translate(-323.892 -1401.017)" fill="#ff6a16" opacity="0.5"/>
        <path id="Path_10817" data-name="Path 10817" d="M472.363,1401.193H477.8l9.522,25.014h-6.176l-2.022-5.6H471l-1.985,5.6h-6.176Zm5.772,15.431-3.051-8.843-3.125,8.843Z" transform="translate(-447.217 -1401.017)" fill="#ff6a16" opacity="0.5"/>
        <path id="Path_10818" data-name="Path 10818" d="M700.869,1423.408a14.055,14.055,0,0,1-3,1.163,13.109,13.109,0,0,1-3.364.423,12.749,12.749,0,0,1-9.375-3.928,12.991,12.991,0,0,1-2.629-4.069,12.349,12.349,0,0,1-.937-4.721,12.029,12.029,0,0,1,.974-4.756,12.842,12.842,0,0,1,2.72-4.052,13.13,13.13,0,0,1,4.136-2.8,12.952,12.952,0,0,1,5.221-1.039,12.418,12.418,0,0,1,5.294,1.11,13.125,13.125,0,0,1,4.081,2.906,12.961,12.961,0,0,1,2.61,4.087,12.4,12.4,0,0,1,.919,4.651,12.115,12.115,0,0,1-.882,4.58,12.54,12.54,0,0,1-2.5,3.911l3.75,3.946h-5.662Zm-6.323-3.558a6.673,6.673,0,0,0,2.573-.458l-4.191-4.439h5.661l1.618,1.726a8.107,8.107,0,0,0,.882-2.114,9.09,9.09,0,0,0-.147-5.091,7.013,7.013,0,0,0-1.324-2.4,6.741,6.741,0,0,0-2.151-1.674,7.133,7.133,0,0,0-5.919.018,6.529,6.529,0,0,0-2.132,1.726,7.315,7.315,0,0,0-1.287,2.431,9.24,9.24,0,0,0-.423,2.766,9,9,0,0,0,.441,2.8,7.176,7.176,0,0,0,1.305,2.4,6.47,6.47,0,0,0,2.151,1.673A6.569,6.569,0,0,0,694.545,1419.85Z" transform="translate(-641.349 -1399.627)" fill="#ff6a16" opacity="0.5"/>
      </g>
      <g id="Group_1792" data-name="Group 1792" transform="translate(3.832)">
        <path id="Path_10819" data-name="Path 10819" d="M357.972,1426.207v-25.014h17.72v5.073H364v5.39h9.632v4.686H364v9.865Z" transform="translate(-357.972 -1401.017)" fill="#ff6a16"/>
        <path id="Path_10820" data-name="Path 10820" d="M506.443,1401.193h5.441l9.522,25.014h-6.176l-2.022-5.6h-8.125l-1.985,5.6h-6.176Zm5.772,15.431-3.051-8.843-3.125,8.843Z" transform="translate(-481.297 -1401.017)" fill="#ff6a16"/>
        <path id="Path_10821" data-name="Path 10821" d="M734.949,1423.408a14.05,14.05,0,0,1-3,1.163,13.108,13.108,0,0,1-3.364.423,12.749,12.749,0,0,1-9.375-3.928,12.99,12.99,0,0,1-2.629-4.069,12.349,12.349,0,0,1-.937-4.721,12.029,12.029,0,0,1,.974-4.756,12.844,12.844,0,0,1,2.72-4.052,13.131,13.131,0,0,1,4.136-2.8,12.952,12.952,0,0,1,5.221-1.039,12.418,12.418,0,0,1,5.294,1.11,13.125,13.125,0,0,1,4.081,2.906,12.962,12.962,0,0,1,2.61,4.087,12.4,12.4,0,0,1,.919,4.651,12.112,12.112,0,0,1-.882,4.58,12.539,12.539,0,0,1-2.5,3.911l3.75,3.946h-5.662Zm-6.323-3.558a6.673,6.673,0,0,0,2.573-.458l-4.191-4.439h5.662l1.618,1.726a8.109,8.109,0,0,0,.882-2.114,9.088,9.088,0,0,0-.147-5.091,7.013,7.013,0,0,0-1.324-2.4,6.74,6.74,0,0,0-2.15-1.674,7.133,7.133,0,0,0-5.919.018,6.528,6.528,0,0,0-2.132,1.726,7.312,7.312,0,0,0-1.287,2.431,9.238,9.238,0,0,0-.423,2.766,9,9,0,0,0,.441,2.8,7.176,7.176,0,0,0,1.305,2.4,6.469,6.469,0,0,0,2.151,1.673A6.568,6.568,0,0,0,728.625,1419.85Z" transform="translate(-675.429 -1399.627)" fill="#ff6a16"/>
      </g>
    </g>
  </g>
</svg>
