<svg xmlns="http://www.w3.org/2000/svg" width="17.208" height="17.196" viewBox="0 0 17.208 17.196">
  <g id="hard" transform="translate(0 0)">
    <g id="_061---Maple-Leaf" data-name="061---Maple-Leaf" transform="translate(0 0)">
      <path id="Shape" d="M7.963,14.208a24.956,24.956,0,0,0-5.256.712.3.3,0,0,1-.335-.415,4.838,4.838,0,0,1,.89-1.2.3.3,0,0,0-.056-.469A19.14,19.14,0,0,1,.046,10.372.3.3,0,0,1,.141,9.88l.756-.3a.3.3,0,0,0,.157-.418L.3,7.661A.3.3,0,0,1,.636,7.24L2.072,7.6a.3.3,0,0,0,.365-.24l.154-.92a.3.3,0,0,1,.486-.172A9.124,9.124,0,0,0,6.183,7.978,10.788,10.788,0,0,1,4.73,3.825a.3.3,0,0,1,.448-.3l.558.365a.3.3,0,0,0,.448-.288V1.841a.3.3,0,0,1,.448-.276l.739.481a.3.3,0,0,0,.43-.163L8.286.47a.3.3,0,0,1,.558,0l.486,1.412a.3.3,0,0,0,.412.163l.73-.475a.3.3,0,0,1,.457.27v1.78a.3.3,0,0,0,.448.279l.558-.371a.3.3,0,0,1,.448.3A10.836,10.836,0,0,1,10.93,7.978a9.124,9.124,0,0,0,3.106-1.706.3.3,0,0,1,.487.172l.154.92a.3.3,0,0,0,.365.24l1.436-.359a.3.3,0,0,1,.335.421l-.753,1.5a.3.3,0,0,0,.157.409l.756.3a.3.3,0,0,1,.095.492,19.139,19.139,0,0,1-3.153,2.447.3.3,0,0,0-.056.469,4.838,4.838,0,0,1,.89,1.2.3.3,0,0,1-.335.43,24.957,24.957,0,0,0-5.262-.7Z" transform="translate(0.048 -0.275)" fill="#ff6a20"/>
      <path id="Shape-2" data-name="Shape" d="M239.532,371.056v3.856a.593.593,0,1,1-1.187,0v-3.856a.3.3,0,0,1,.3-.3h.593A.3.3,0,0,1,239.532,371.056Z" transform="translate(-230.334 -358.309)" fill="#ea561b"/>
      <g id="Group_1816" data-name="Group 1816" transform="translate(2.374 2.957)">
        <path id="Shape-3" data-name="Shape" d="M75.193,258.691a23.859,23.859,0,0,1-4.1-2.634.3.3,0,1,0-.38.457,23.941,23.941,0,0,0,4.209,2.705.276.276,0,0,0,.133.033.3.3,0,0,0,.134-.561Z" transform="translate(-70.61 -250.353)" fill="#ea5618"/>
        <path id="Shape-4" data-name="Shape" d="M304.845,256.092a.3.3,0,0,0-.418-.039,23.916,23.916,0,0,1-4.1,2.634.3.3,0,0,0,.134.561.276.276,0,0,0,.133-.033,23.944,23.944,0,0,0,4.209-2.705.3.3,0,0,0,.039-.418Z" transform="translate(-292.454 -250.349)" fill="#ea5618"/>
        <path id="Shape-5" data-name="Shape" d="M247.469,89.463a.3.3,0,0,0,.3-.3v-.593a.3.3,0,0,0-.593,0v.593A.3.3,0,0,0,247.469,89.463Z" transform="translate(-241.239 -88.276)" fill="#ea5618"/>
        <path id="Shape-6" data-name="Shape" d="M190.007,145.928a.3.3,0,0,0-.356-.475,4.981,4.981,0,0,1-1.6.795v-2.966a2.257,2.257,0,0,0,1.433-.988.3.3,0,1,0-.492-.326,1.673,1.673,0,0,1-.94.7v-1.133a.3.3,0,1,0-.593,0v1.133a1.673,1.673,0,0,1-.94-.7.3.3,0,1,0-.492.326,2.257,2.257,0,0,0,1.433.988v2.966a4.925,4.925,0,0,1-1.6-.792.3.3,0,0,0-.356.475,5.417,5.417,0,0,0,1.958.923v.914a.3.3,0,0,0,.593,0v-.917a5.416,5.416,0,0,0,1.958-.923Z" transform="translate(-181.523 -139.461)" fill="#ea5618"/>
      </g>
    </g>
  </g>
</svg>
