<svg xmlns="http://www.w3.org/2000/svg" width="100" height="100" viewBox="0 0 100 100">
  <g id="trekkkinghing" transform="translate(6221 12432.104)">
    <circle id="Ellipse_711" data-name="Ellipse 711" cx="50" cy="50" r="50" transform="translate(-6221 -12432.104)" fill="#3da4ff" opacity="0.1"/>
    <circle id="Ellipse_712" data-name="Ellipse 712" cx="40" cy="40" r="40" transform="translate(-6211 -12422.104)" fill="#3da4ff"/>
    <g id="climbing" transform="translate(-6191 -12402.104)">
      <path id="Path_8869" data-name="Path 8869" d="M39.219,77.737h-3.51a2.465,2.465,0,0,0-1.778.762l-5.1,5.363V73.6h.078a2.344,2.344,0,0,0,0-4.687h-.078V64.7a.781.781,0,0,0-1.562,0v4.218h-4.66l-3.172-1.5c-.02-.012-.041-.024-.062-.035l-.339-.167a4.3,4.3,0,1,0-3.877-1.517,4.2,4.2,0,0,0-1.417.183l-1.2-.59a4.191,4.191,0,0,0-5.606,1.9l-2.7,5.477a3.276,3.276,0,0,0,1.518,4.4l.847.407a5.962,5.962,0,0,0,.512,4.561l-.069.069h0L3.282,85.866l-.014.013L1.374,87.773a.782.782,0,0,0,0,1.105l3.591,3.59a.614.614,0,0,0,.047.042H.781a.781.781,0,0,0,0,1.563h7.5a2.812,2.812,0,0,0,1.985-.814l5.687-5.6a1.039,1.039,0,0,1,.733-.3h8.148a6.621,6.621,0,0,0,4.776-2.048l5.453-5.731a.9.9,0,0,1,.646-.277h2.729V93.292a.781.781,0,1,0,1.562,0V78.518a.781.781,0,0,0-.781-.781ZM29.687,71.26a.782.782,0,0,1-.781.781H22.7l.351-1.562h5.851a.782.782,0,0,1,.781.781ZM18.462,60.219a2.734,2.734,0,1,1-2.734,2.734,2.737,2.737,0,0,1,2.734-2.734Zm-2.333,7.3,2.481,1.223a.754.754,0,0,0,.081.045l2.839,1.346L21.179,71.7l-3.158-1.5-.015-.006-.021-.012-1.73-.848a.781.781,0,0,0-.688,1.4l1.027.5-2.013,4.081H9.355l3.26-6.61a2.626,2.626,0,0,1,3.513-1.193ZM9.8,83.761,8.7,82.656a.78.78,0,0,0,.181-.536h1.563a2.46,2.46,0,0,1-.64,1.641Zm1.367-4.585a2.466,2.466,0,0,0-.7,1.382H8.161a4.4,4.4,0,0,1,.064-3.011.777.777,0,0,0,.074-.122.789.789,0,0,0,.064-.2c.055-.116.116-.23.182-.342h6.1l-.781,1.563h-.94a2.468,2.468,0,0,0-1.756.728Zm5.054,1.766,1.562-.42v2.145H16.224ZM17.786,78.9l-1.814.488a1.894,1.894,0,0,0-.535-.591l.957-1.915h.292a1.1,1.1,0,0,1,1.1,1.1ZM11.851,66.688l.26.128a4.167,4.167,0,0,0-.9,1.207l-.692,1.4-2.4-1.1.219-.443a2.626,2.626,0,0,1,3.513-1.193Zm-6.3,7.986a1.7,1.7,0,0,1,.083-1.317l1.791-3.631,2.4,1.1-2.419,4.9-.184.31-.8-.383a1.7,1.7,0,0,1-.877-.986ZM7.6,83.763l1.1,1.1L6.031,87.537l-1.1-1.1ZM3.031,88.326l.789-.789L4.964,88.68A1.9,1.9,0,0,1,5.4,90.693Zm6.138,3.821a1.259,1.259,0,0,1-.888.364H6.022c.016-.014.032-.027.047-.042a3.467,3.467,0,0,0,.823-3.583l3.929-3.929A4.016,4.016,0,0,0,12.005,82.1V80.933a.921.921,0,0,1,.921-.921h1.417a.319.319,0,0,1,.319.319v6.244a.8.8,0,0,0,.014.146Zm7.517-6.355h-.462V84.23h1.614a2.347,2.347,0,0,1,2.21,1.563Zm4.98,0a3.92,3.92,0,0,0-2.317-2.821V77.986a2.666,2.666,0,0,0-2.663-2.663h-.362L18,71.922l3.39,1.607a.757.757,0,0,0,.084.033l.014,0,.034.011.016,0,.017,0,.04.006.036.006a.781.781,0,0,0,.1.006h5.537V85.164a5.046,5.046,0,0,1-2.431.629Zm0,0" transform="translate(0 -54.074)" fill="#fff"/>
      <path id="Path_8870" data-name="Path 8870" d="M349.781,84.734a.781.781,0,1,0-.552-.229A.787.787,0,0,0,349.781,84.734Zm0,0" transform="translate(-321.734 -76.674)" fill="#fff"/>
      <path id="Path_8871" data-name="Path 8871" d="M396.688,9.375A4.687,4.687,0,1,0,392,4.687,4.693,4.693,0,0,0,396.688,9.375Zm0-7.812a3.125,3.125,0,1,1-3.125,3.125A3.129,3.129,0,0,1,396.688,1.562Zm0,0" transform="translate(-361.375)" fill="#fff"/>
    </g>
  </g>
</svg>
